<?xml version="1.0" encoding="UTF-8" standalone="no"?>
<svg
   xmlns:dc="http://purl.org/dc/elements/1.1/"
   xmlns:cc="http://creativecommons.org/ns#"
   xmlns:rdf="http://www.w3.org/1999/02/22-rdf-syntax-ns#"
   xmlns:svg="http://www.w3.org/2000/svg"
   xmlns="http://www.w3.org/2000/svg"
   xmlns:xlink="http://www.w3.org/1999/xlink"
   viewBox="0 0 512 512"
   height="512"
   width="512"
   id="svg46"
   version="1.1">
  <metadata
     id="metadata52">
    <rdf:RDF>
      <cc:Work
         rdf:about="">
        <dc:format>image/svg+xml</dc:format>
        <dc:type
           rdf:resource="http://purl.org/dc/dcmitype/StillImage" />
        <dc:title></dc:title>
      </cc:Work>
    </rdf:RDF>
  </metadata>
  <defs
     id="defs50" />
  <image
     y="0"
     x="0"
     id="image54"
     preserveAspectRatio="none"
     height="512"
     width="512" />
  <g
     id="g3759">
    <path
       id="path3775"
       d="M 0,256 V 0 H 256 512 V 256 512 H 256 0 Z"
       style="fill:#fdfdfd" />
    <path
       id="path3773"
       d="m 10.59093,453.53497 c -4.9428046,-1.78118 -7.5481927,-4.38287 -9.2321068,-9.21898 -2.00453951,-5.75694 -1.9573609,-248.00971 0.049423,-253.77574 1.6832048,-4.8363 5.3288772,-8.1231 10.5777158,-9.53647 2.675837,-0.72053 28.181445,-0.97405 78.898617,-0.78425 l 74.944541,0.28047 4.33544,3.01338 c 2.53412,1.76135 5.27029,4.86168 6.58544,7.46188 l 2.25,4.44852 V 317.5 439.57622 l -2.25,4.44852 c -1.31516,2.60022 -4.05132,5.70052 -6.58545,7.46188 l -4.33546,3.01338 -75.664543,0.22182 c -62.973758,0.18462 -76.320193,-0.0144 -79.573617,-1.18685 z m 81.996254,-18.02768 c 3.356711,-5.12299 -0.649896,-9.7123 -7.071954,-8.10047 C 79.881913,428.82069 82.035041,438 88,438 c 2.045035,0 3.456427,-0.76696 4.587184,-2.49271 z M 159.75483,317.74338 160.00966,217.98676 88.25483,218.24338 16.5,218.5 16.245078,316.89161 c -0.186942,72.15375 0.04719,98.75562 0.877981,99.75667 0.94141,1.13433 13.070018,1.32168 71.754922,1.10839 L 159.5,417.5 Z M 97.25,202.25493 c -5.0875,-0.18149 -13.4125,-0.18149 -18.5,0 -5.0875,0.18149 -0.925,0.32999 9.25,0.32999 10.175,0 14.3375,-0.1485 9.25,-0.32999 z m 101.61078,248.83454 c -2.12208,-1.71737 -2.39497,-2.85516 -2.6989,-11.25312 -0.30165,-8.335 -0.10666,-9.63683 1.80793,-12.07084 l 2.14605,-2.72826 22.69207,-0.26862 L 245.5,424.5 245.76757,416 c 0.40851,-12.97734 -3.26892,-12 45.15208,-12 33.52701,0 41.04012,0.24956 42.63922,1.41632 1.58913,1.15949 2.0318,3.01819 2.44113,10.25 l 0.5,8.83368 29.43828,0.2654 c 25.63433,0.23111 29.67239,0.47727 31.25,1.90499 1.52655,1.38151 1.81172,3.26794 1.81172,11.9846 0,9.01168 -0.25777,10.60278 -2,12.34501 -1.97248,1.97248 -3.33333,2 -98.88922,2 -93.88641,0 -96.96238,-0.0592 -99.25,-1.91053 z m 4.3146,-63.34326 c -1.27855,-0.61514 -3.19105,-2.81676 -4.25,-4.89248 C 197.21017,379.49164 197,376.84131 197,358.57376 c 0,-23.21005 0.66216,-26.0885 6.65934,-28.94835 C 206.75627,328.14859 219.99994,328 348.53393,328 H 490 V 205.7 C 490,111.91111 489.72025,83.120251 488.8,82.2 487.87468,81.274681 441.90111,81 287.95499,81 95.812137,81 88.247785,81.06872 86.654988,82.828741 85.176773,84.46215 85,88.673597 85,122.25731 c 0,32.84833 -0.198582,37.79841 -1.571429,39.17126 -1.179983,1.17999 -3.670995,1.57143 -10,1.57143 -13.571651,0 -12.568321,3.67749 -12.220605,-44.79203 L 61.5,77.5 l 2.656753,-5 C 67.505348,66.197956 71.151603,62.728466 77.5,59.803614 L 82.5,57.5 H 288 493.5 l 6.30015,3.416053 c 7.02231,3.807625 9.48536,6.679604 10.79217,12.583947 1.12976,5.104385 1.13252,294.56575 0.003,300.18607 -1.04043,5.17641 -5.36365,9.80722 -12.09519,12.95575 l -5,2.33864 -144,-0.0579 C 245.49483,388.88072 204.85435,388.554 203.17538,387.74621 Z M 293.75,359.75156 c 3.47619,-3.24473 3.09428,-8.86336 -0.82673,-12.16267 -4.03189,-3.39261 -7.37495,-3.29105 -11.00019,0.33419 -4.52333,4.52333 -3.70925,10.47562 1.85206,13.54164 3.25093,1.79228 6.88871,1.1675 9.97486,-1.71316 z"
       style="fill:#f5e7e7" />
    <path
       id="path3771"
       d="m 10.683804,452.5669 c -4.8479604,-1.74896 -7.4778915,-4.13832 -9.2663578,-8.41872 -2.17094753,-5.19581 -2.11592981,-248.23223 0.057371,-253.43367 1.7993595,-4.30647 5.5188906,-7.36646 10.6257468,-8.74159 2.527654,-0.68063 29.418703,-0.93803 78.70567,-0.75339 l 74.866196,0.28047 4.12862,2.86163 c 2.34758,1.62716 5.00656,4.67522 6.16378,7.06572 C 177.97759,195.58516 178,196.97331 178,317.5 c 0,120.52669 -0.0224,121.91484 -2.03517,126.07265 -1.15723,2.39051 -3.81619,5.43855 -6.1638,7.06572 L 165.6724,453.5 90.086202,453.72182 c -62.087612,0.18221 -76.267719,-0.024 -79.402398,-1.15492 z m 81.300655,-14.55858 c 2.706665,-1.44857 3.550146,-6.54346 1.580869,-9.54896 -2.314283,-3.53204 -8.82914,-3.51256 -11.152512,0.0333 -4.038089,6.16291 2.916861,13.07714 9.571643,9.51561 z m 67.770401,-19.83565 c 0.99558,-0.6321 1.2022,-21.44517 1,-100.73469 L 160.5,217.5 88.56314,217.24333 c -56.887814,-0.20298 -72.103764,0.006 -72.734687,1 -0.438805,0.69117 -0.804718,45.43703 -0.81314,99.43524 -0.01372,87.93311 0.148674,98.34256 1.556116,99.75 1.399013,1.39901 9.271351,1.56975 71.75,1.55612 38.598211,-0.008 70.743261,-0.37383 71.433431,-0.81202 z M 107,202.5 c 0,-1.27911 -2.71566,-1.5 -18.440983,-1.5 -16.753522,0 -20.728332,0.49735 -18.865164,2.36052 C 70.045567,203.71223 78.583333,204 88.666667,204 104.2963,204 107,203.77879 107,202.5 Z m 93.3997,248.73469 C 197.99693,449.63031 197,445.76865 197,438.06574 197,425.59058 196.10442,426 223.39301,426 c 19.49701,0 22.47151,-0.20457 23,-1.58179 0.33385,-0.86998 0.60699,-4.88784 0.60699,-8.92857 0,-5.34556 0.42805,-7.77483 1.57143,-8.91821 1.37718,-1.37719 6.61145,-1.57143 42.34501,-1.57143 37.82487,0 40.89009,0.12874 42.38458,1.78013 1.15311,1.27417 1.69455,4.18747 1.90499,10.25 L 335.5,425.5 365.78753,426 c 25.45681,0.42025 30.4386,0.73924 31.23469,2 0.52093,0.825 0.95405,5.86198 0.96247,11.1933 0.014,8.89221 -0.16836,9.82194 -2.2072,11.25 -1.97446,1.38296 -12.9398,1.55499 -98.25,1.54139 -52.81512,-0.008 -96.52262,-0.34592 -97.12779,-0.75 z m 2.81709,-64.79539 C 198.48713,383.12651 198,380.51764 198,358.5 c 0,-16.45681 0.30505,-21.18923 1.51693,-23.53273 C 202.80734,328.60431 192.89839,329 348.95034,329 H 491 V 205.53518 C 491,84.492595 490.96205,82.050058 489.06574,81.035184 487.75096,80.331536 423.28824,80 287.78825,80 108.98552,80 88.216003,80.160404 86.222506,81.556704 L 84,83.113408 V 121.3567 c 0,28.41146 -0.308504,38.5518 -1.2,39.4433 -0.736894,0.73689 -4.343336,1.2 -9.345012,1.2 -12.520947,0 -11.594634,3.63396 -11.248007,-44.12628 0.284524,-39.203175 0.355809,-40.490994 2.458733,-44.418668 2.84756,-5.318446 10.019471,-11.84344 14.918423,-13.57276 C 82.867893,58.723133 116.59155,58.5 288.5,58.5 h 205 l 5.3988,2.989918 c 6.37582,3.531001 10.00005,7.742731 11.77793,13.68718 1.85473,6.201384 1.9326,289.515992 0.0815,296.437122 -1.48285,5.54421 -7.07692,11.71916 -13.09015,14.44939 -4.02659,1.82823 -9.05665,1.89321 -148.19555,1.91443 -128.91888,0.0197 -144.26124,-0.14176 -146.25572,-1.53874 z m 88.23484,-23.85464 C 295.43883,360.9187 297,358.41895 297,353.7006 c 0,-6.83669 -6.74838,-11.2901 -13.11321,-8.65371 -3.26195,1.35115 -5.88679,5.48389 -5.88679,9.26859 0,3.937 5.16168,9.2872 9.28212,9.62113 0.43016,0.0349 2.30644,-0.57351 4.16951,-1.35195 z"
       style="fill:#e3b2b1" />
    <path
       id="path3769"
       d="M 10.683804,451.55119 C 8.5848961,450.80262 5.9513254,449.36094 4.8314247,448.34744 -0.22542341,443.77106 0,449.89022 0,317.19754 V 193.29577 l 2.2533979,-3.34382 c 1.2393689,-1.8391 3.8268689,-4.26815 5.75,-5.39788 C 11.430191,182.54101 12.947454,182.49392 84,182.19542 c 39.875,-0.16753 74.88724,-0.0196 77.80498,0.32882 6.08487,0.72653 11.5842,4.7696 13.84398,10.17802 2.02651,4.85014 2.00171,244.84126 -0.0258,249.57986 -1.95228,4.56278 -6.75081,8.72754 -11.26152,9.77415 -2.1239,0.49281 -36.71164,0.887 -76.86164,0.87598 -59.000747,-0.0162 -73.731834,-0.28104 -76.816196,-1.38106 z M 92.886204,438.25 c 3.237824,-2.68824 3.701641,-7.23296 1.078505,-10.56774 -1.853192,-2.35595 -2.814905,-2.73954 -6.228186,-2.48421 -3.001098,0.22449 -4.544559,0.98506 -6.016809,2.9649 -5.098876,6.8568 4.554335,15.57686 11.16649,10.08705 z M 160.06574,418.96482 C 161.95824,417.95198 162,415.77591 162,318.16482 162,241.90329 161.7173,218.1173 160.8,217.2 159.88896,216.28896 142.31893,216 87.835184,216 c -69.928315,0 -71.791307,0.0495 -72.8,1.93426 C 14.341792,219.22987 14,252.24741 14,317.93426 14,414.66667 14.02719,416.02719 16,418 c 1.961941,1.96194 3.333333,2 72.065741,2 46.385739,0 70.719459,-0.34986 71.999999,-1.03518 z M 107.5,202.5 c 0,-1.91995 -0.75757,-2.01092 -18.927283,-2.27272 -11.091282,-0.15981 -19.322865,0.12287 -19.882782,0.68279 -0.525525,0.52552 -0.681129,1.6705 -0.345785,2.54439 0.533065,1.38914 3.032595,1.55473 19.882782,1.31721 C 106.74278,204.51067 107.5,204.42142 107.5,202.5 Z m 92.0567,246.27749 C 198.45795,447.2088 198,444.16552 198,438.43248 198,426.51883 196.91441,427 223.79356,427 249.54747,427 248,427.71818 248,415.76574 c 0,-4.39558 0.48389,-7.84963 1.2,-8.56574 0.89356,-0.89356 11.47302,-1.2 41.42857,-1.2 35.2381,0 40.42351,0.19494 41.8,1.57143 1.15747,1.15747 1.57143,3.60736 1.57143,9.3 0,4.67778 0.47369,8.20226 1.2,8.92857 0.87835,0.87835 9,1.2 30.3,1.2 21.3,0 29.42165,0.32165 30.3,1.2 1.90803,1.90803 1.60456,19.25259 -0.37143,21.22857 C 394.02174,450.8354 383.76273,451 297.48528,451 h -96.37187 z m 4.19328,-62.8576 C 199.59084,383.49741 199,380.08673 199,358.5 c 0,-21.61676 0.6101,-25.12859 4.71301,-27.12882 C 204.69586,330.89203 269.85,330.275 348.5,330 l 143,-0.5 0.26713,-123.5 0.26712,-123.5 -2.12791,-1.75 C 487.8955,79.096276 476.78902,79 288.02407,79 H 88.269717 L 85.646543,81.063389 83.023369,83.126778 82.761685,121.81339 82.5,160.5 l -8.597095,0.2867 c -6.534224,0.21791 -8.884034,-0.059 -9.792927,-1.15418 -0.895166,-1.07861 -1.122183,-11.58499 -0.902906,-41.78671 C 63.491456,78.67677 63.56307,77.383332 65.662371,73.5 68.459383,68.326028 73.46902,63.565479 78.5,61.300681 c 3.80212,-1.711601 13.893998,-1.815557 204,-2.101382 110,-0.165385 202.77272,-0.02133 206.16159,0.320126 8.33612,0.839927 15.71403,5.274304 19.8025,11.901984 l 3.03591,4.921408 0.27415,145.578593 c 0.30481,161.86119 0.78851,150.10343 -6.48309,157.59076 -1.99619,2.05541 -5.4658,4.57114 -7.71024,5.59051 -3.91302,1.77718 -10.00206,1.85305 -148.08082,1.84495 -95.99068,-0.006 -144.58345,-0.34828 -145.75002,-1.02774 z m 87.65145,-22.31426 c 6.87433,-2.87228 8.81859,-10.81384 4.03829,-16.4949 -4.80133,-5.70606 -13.50584,-4.75112 -16.92279,1.85654 -2.90436,5.61641 -0.96044,11.57958 4.68116,14.35992 4.05053,1.99621 4.08902,1.99751 8.20334,0.27844 z"
       style="fill:#cd7270" />
    <path
       id="path3767"
       d="m 11.31817,450.91425 c -1.7500065,-0.51486 -5.0125065,-2.74858 -7.25,-4.96382 L 0,441.92271 V 317.5 193.07729 l 4.0553222,-4.015 c 2.3263606,-2.30323 5.7243282,-4.46441 7.9700168,-5.06911 2.624828,-0.7068 28.580089,-0.96171 78.773154,-0.77365 l 74.858457,0.28047 3.77763,2.88182 C 176.43032,191.71863 176,183.12461 176,317.5 c 0,134.37542 0.43033,125.78138 -6.56543,131.11818 L 165.65692,451.5 90.078462,451.67518 C 45.497189,451.77851 13.195028,451.46643 11.31817,450.91425 Z M 93.445306,438.75 c 3.914765,-3.44497 4.303236,-7.70696 1.054397,-11.56798 -3.755628,-4.46331 -9.206374,-4.50777 -12.910809,-0.10529 -2.988995,3.55221 -3.156511,4.92494 -1.088916,8.92323 2.788948,5.39323 8.550757,6.61724 12.945328,2.75004 z M 160.77749,419.4433 163,417.88659 v -99.61455 c 0,-91.28907 -0.13832,-99.7674 -1.65499,-101.4433 C 159.77097,215.08944 156.17907,215 87.901716,215 H 16.113408 l -1.556704,2.22251 C 13.17339,219.19746 13,230.39648 13,317.76796 v 98.32295 l 2.454545,2.45454 L 17.909091,421 h 70.322948 c 62.029291,0 70.585061,-0.18359 72.545451,-1.5567 z M 108.06957,204.41618 c 0.95388,-1.14936 1.02615,-2.04088 0.26345,-3.25 C 107.41148,199.70522 104.9071,199.5 88,199.5 c -16.907105,0 -19.411476,0.20522 -20.333025,1.66618 -0.762694,1.20912 -0.690424,2.10064 0.263458,3.25 1.963793,2.36622 38.175337,2.36622 40.139137,0 z m 91.96561,243.64956 C 198.57958,445.34592 198.7076,430.6924 200.2,429.2 c 0.86119,-0.86119 7.46168,-1.2 23.37756,-1.2 19.37598,0 22.35092,-0.20817 23.55,-1.64787 0.81994,-0.9845 1.57372,-5.11079 1.87244,-10.25 l 0.5,-8.60213 40.38373,-0.26146 c 28.97955,-0.18762 40.76956,0.0587 41.75,0.87245 0.93919,0.77946 1.36627,3.54786 1.36627,8.85647 0,11.6207 -1.96408,10.95136 33.06172,11.26714 L 395.5,428.5 l 0.28886,9.35072 c 0.18643,6.03498 -0.12294,9.84689 -0.87245,10.75 C 393.936,449.78204 378.74852,450 297.41274,450 c -94.22742,0 -96.3651,-0.0425 -97.37756,-1.93426 z m 4.19378,-62.73503 C 200.69918,383.91051 200,379.49057 200,358.59671 c 0,-21.80157 0.4899,-24.58763 4.65732,-26.48644 C 206.40658,331.31326 247.08903,331 348.84705,331 c 108.91896,0 142.0309,-0.27795 142.95295,-1.2 0.92035,-0.92035 1.2,-29.9172 1.2,-124.42742 V 82.14516 L 490.36514,80.07258 487.73028,78 H 287.94187 88.153451 L 85.088533,80.578958 82.023615,83.157917 81.761808,121.32896 81.5,159.5 H 73 64.5 v -41 c 0,-40.27935 0.03851,-41.071972 2.191086,-45.09468 2.741378,-5.123063 7.97572,-9.782984 12.973144,-11.549461 C 82.844804,60.731597 118.51648,60.5 288.5,60.5 h 205 l 5.39221,2.986327 c 3.30793,1.832008 6.39659,4.537749 7.99064,7 1.42914,2.20752 3.05264,4.334759 3.60779,4.727198 0.67135,0.474585 1.00936,50.059855 1.00936,148.071425 0,139.00753 -0.0992,147.45707 -1.75,149.10791 -0.9625,0.9625 -1.75,2.08243 -1.75,2.48873 0,1.60259 -6.71995,7.52093 -10.5,9.24748 -3.81658,1.74323 -10.60305,1.82439 -148,1.77002 -79.2,-0.0313 -144.57197,-0.28711 -145.27104,-0.56838 z m 87.13526,-20.70953 c 7.93595,-3.31585 10.07243,-11.7764 4.55939,-18.0554 -3.79135,-4.31811 -8.36407,-5.42361 -12.84635,-3.10573 -3.68293,1.90452 -7.06978,6.95379 -7.06978,10.53995 0,3.67644 3.25957,8.39126 7.11401,10.29009 4.13086,2.035 4.16172,2.03624 8.24273,0.33109 z"
       style="fill:#bd4441" />
    <path
       id="path3765"
       d="m 9.5,449.60394 c -1.65,-0.73541 -4.35,-2.85964 -6,-4.72052 L 0.5,441.5 V 317.49808 193.49616 l 3.4206849,-3.75908 c 1.8813768,-2.06749 5.0313768,-4.22644 7.0000001,-4.79767 2.377121,-0.68975 29.171058,-0.93796 79.774096,-0.739 l 76.194779,0.29959 3.46352,3.35729 c 2.12655,2.06132 3.88493,5.03087 4.55522,7.69282 1.53315,6.08868 1.53315,237.8111 0,243.89978 -0.67029,2.66196 -2.42867,5.63149 -4.55523,7.69282 L 166.88954,450.5 89.69477,450.72053 C 27.051102,450.89948 11.934504,450.68901 9.5,449.60394 Z m 85.045455,-11.05849 c 3.268857,-3.26885 3.294626,-8.45727 0.06068,-12.21696 -1.913616,-2.22471 -3.238921,-2.78304 -6.606133,-2.78304 -7.310535,0 -11.028539,6.63111 -7.52104,13.41386 1.734215,3.35361 2.725121,3.85584 7.816495,3.96174 2.765588,0.0575 4.461475,-0.58707 6.25,-2.3756 z M 161.06574,419.96482 C 162.95846,418.95187 163,416.7637 163,318.08726 163,225.50408 162.86456,217.13248 161.34631,215.87244 159.97846,214.73723 147.25971,214.5 87.765694,214.5 c -70.045641,0 -71.964041,0.0508 -73.346305,1.94113 C 13.216096,218.08673 13,233.50165 13,317.69113 13,415.66667 13.02685,417.02685 15,419 c 1.962476,1.96248 3.333333,2 73.065741,2 47.075069,0 71.718719,-0.34946 72.999999,-1.03518 z M 109.06957,204.41618 c 0.95388,-1.14936 1.02615,-2.04088 0.26345,-3.25 -0.92473,-1.46601 -3.49906,-1.66618 -21.428311,-1.66618 -18.86266,0 -20.403206,0.13442 -20.725587,1.80841 C 66.297284,205.88743 66.793176,206 87.84617,206 c 16.94518,0 20.10462,-0.23578 21.2234,-1.58382 z m 91.5971,243.91715 C 200.3,447.96667 200,443.51481 200,438.44032 c 0,-7.49073 0.29756,-9.34053 1.58179,-9.83333 C 202.45177,428.27314 213.01094,428 225.0466,428 250.53878,428 249,428.73229 249,416.60093 c 0,-6.42179 0.28479,-7.68298 1.93426,-8.56575 C 252.1715,407.37303 266.74007,407 291.36283,407 c 33.6615,0 38.6916,0.19729 40.06574,1.57143 1.15747,1.15747 1.57143,3.60736 1.57143,9.3 0,4.67778 0.47369,8.20226 1.2,8.92857 0.87835,0.87835 9,1.2 30.3,1.2 21.3,0 29.42165,0.32165 30.3,1.2 1.25091,1.25091 1.70857,15.3111 0.59301,18.21821 -0.5477,1.4273 -10.05405,1.58179 -97.33333,1.58179 -53.19949,0 -97.02635,-0.3 -97.39301,-0.66667 z m 4.08331,-63.41344 C 200.62832,382.51924 200,379.02446 200,358.5 c 0,-20.55747 0.64743,-24.14679 4.71301,-26.12882 C 205.69586,331.89203 270.85,331.275 349.5,331 l 143,-0.5 0.2671,-124.5 0.26711,-124.5 -2.12789,-1.75 C 488.89542,78.096211 477.74141,78 288.02407,78 H 87.269717 L 84.646543,80.063389 82.023369,82.126778 81.761685,120.81339 81.5,159.5 l -7.594961,0.28927 c -5.67583,0.21618 -7.897906,-0.0757 -8.793862,-1.15531 -0.898356,-1.08245 -1.125235,-11.30765 -0.905039,-40.78927 C 64.49155,79.631374 64.562617,78.383017 66.677583,74.431786 69.476551,69.202687 75.676846,63.616391 80.619292,61.87069 83.85751,60.726932 118.27426,60.5 288.5,60.5 h 204 l 5.5,3.084138 c 3.58715,2.011501 6.63032,4.746189 8.75,7.863014 1.7875,2.628382 3.28163,4.39052 3.32029,3.915862 C 510.10894,74.888357 510.52731,75.4 511,76.5 c 0.47269,1.1 0.85943,67.25 0.85943,147 0,79.75 -0.38674,145.9 -0.85943,147 -0.47269,1.1 -0.89106,1.59478 -0.92971,1.09952 -0.0387,-0.49527 -1.30779,0.93171 -2.82029,3.17106 -1.5125,2.23935 -3.9612,5.01903 -5.44155,6.17709 -6.81099,5.32809 1.49165,5.05472 -152.52633,5.02192 -95.12387,-0.0203 -143.36625,-0.37063 -144.53214,-1.0497 z m 90.22657,-21.7393 c 3.49581,-2.59281 5.38475,-8.55582 4.02011,-12.69071 C 294.75169,337.62749 276,340.48967 276,354 c 0,9.75399 11.01721,15.08396 18.97655,9.18059 z"
       style="fill:#bc413e" />
    <path
       id="path3763"
       d="M 9.2510526,449.0274 C 6.8713015,447.94719 4.4973938,445.99101 3.8548247,444.58072 3.2238204,443.19582 2.3745073,442.26854 1.9674622,442.52011 1.5604171,442.77168 0.95736428,441.97007 0.6273448,440.73875 -0.32140255,437.19894 0.04255889,195.72809 1,193.5 c 0.4726862,-1.1 0.89274,-1.55 0.9334528,-1 0.040713,0.55 0.9243305,-0.39443 1.9635948,-2.09873 3.9943616,-6.5504 2.0187914,-6.40144 84.8731884,-6.39972 83.326144,0.002 79.123324,-0.34348 83.959834,6.89633 L 175,194.29577 V 317.5 440.70423 l -2.26993,3.39789 c -4.8389,7.24338 -0.59629,6.89712 -84.23007,6.87436 -71.916213,-0.0196 -75.174705,-0.0997 -79.2489474,-1.94908 z M 94.75,438.44531 c 3.450782,-3.92137 3.088041,-9.56236 -0.826725,-12.85642 C 92.190191,424.1306 89.603429,423 88,423 c -1.603429,0 -4.190191,1.1306 -5.923275,2.58889 C 79.665079,427.61816 79,428.97513 79,431.86639 c 0,9.0804 9.907053,13.21867 15.75,6.57892 z m 67.6933,-19.66782 C 163.82674,416.80235 164,405.55606 164,317.73204 V 218.90909 L 161.54545,216.45455 159.09091,214 H 88.267961 c -62.481831,0 -71.084702,0.18334 -73.045455,1.5567 L 13,217.11341 v 100.11455 c 0,91.75433 0.138202,100.26727 1.654988,101.9433 C 16.229237,420.91079 19.836537,421 88.598284,421 H 160.88659 Z M 107.77749,205.4433 C 108.99987,204.58711 110,203.26263 110,202.5 c 0,-0.76263 -1.00013,-2.08711 -2.22251,-2.9433 C 105.97336,198.29304 102.29027,198 88.211752,198 c -10.042786,0 -18.15744,0.43575 -19.277493,1.03518 -2.420821,1.29559 -2.53378,5.51625 -0.184259,6.88472 1.001942,0.58358 9.242329,1.03228 19.277494,1.04969 14.280816,0.0248 17.939176,-0.25794 19.749996,-1.52629 z m 92.64799,242.22311 c -0.28146,-0.73347 -0.37983,-5.12097 -0.21861,-9.75 L 200.5,429.5 223.09919,429 c 17.09633,-0.37825 23.00116,-0.83419 24.25,-1.87244 1.18405,-0.98439 1.65081,-2.99897 1.65081,-7.125 0,-3.16391 0.28125,-7.15881 0.625,-8.87756 L 250.25,408 h 40.77238 40.77239 l 0.35261,8.46469 c 0.53348,12.80644 -1.70627,11.97942 33.38689,12.32798 L 395,429.08533 V 439.04267 449 h -97.03138 c -79.94632,0 -97.1215,-0.23482 -97.54314,-1.33359 z m 4.78009,-62.71401 C 200.90693,383.22723 200,378.65019 200,358.68134 c 0,-11.13695 0.44751,-19.66662 1.13532,-21.63969 C 203.36259,330.65251 194.74492,331 350.96788,331 H 493 V 206.0567 81.113408 l -2.22251,-1.556704 C 488.78388,78.160322 467.89113,78 287.91235,78 H 87.269717 L 84.634859,80.07258 82,82.14516 v 37.72742 c 0,28.01022 -0.309076,38.0365 -1.2,38.92742 -1.828416,1.82842 -13.308735,1.54841 -15.228571,-0.37143 -2.343804,-2.3438 -2.347719,-72.451517 -0.0045,-80.342036 C 67.687032,70.947419 73.563006,64.664652 80.326791,62.304861 85.247713,60.588019 95.375524,60.5 288,60.5 c 163.72614,0 203.20292,0.249205 206.17105,1.301496 5.84681,2.072866 11.33748,6.627752 13.67012,11.340291 1.18649,2.397017 2.18924,3.683213 2.22833,2.858213 0.0474,-1.000551 0.35723,-0.834068 0.9305,0.5 1.12333,2.61413 1.12333,291.38587 0,294 -0.58782,1.36794 -0.89401,1.52596 -0.96886,0.5 -0.0602,-0.825 -0.7147,-0.10977 -1.45448,1.5894 -0.73978,1.69916 -3.01141,4.70773 -5.04806,6.68571 -7.38793,7.17506 2.8863,6.73195 -154.45674,6.6615 -83.77528,-0.0375 -142.50856,-0.43931 -143.86629,-0.98421 z m 88.86103,-21.2183 c 3.915,-2.63832 6.48252,-8.4101 5.49371,-12.34984 -0.37301,-1.48618 -2.18167,-4.20562 -4.01925,-6.0432 C 292.97357,342.77357 291.35498,342 288.55034,342 c -7.36491,0 -12.59121,5.09493 -12.5149,12.20034 0.0454,4.22458 1.83861,7.41863 5.53199,9.85332 3.89409,2.567 8.38622,2.45215 12.49917,-0.31956 z"
       style="fill:#b93b38" />
    <path
       id="path3761"
       d="m 11.683804,449.56404 c -4.3945859,-1.5821 -7.3734675,-4.0109 -8.230271,-6.71044 -0.3286392,-1.03545 -0.9639668,-1.65617 -1.4118393,-1.37937 -0.4478724,0.2768 -1.08432942,-0.50416 -1.4143489,-1.73548 C -0.32135759,436.19911 0.04253311,196.72815 1,194.5 c 0.4726862,-1.1 0.89274,-1.55 0.9334528,-1 0.040713,0.55 0.952441,-0.44065 2.0260627,-2.20145 1.0736217,-1.7608 3.4344395,-4.0108 5.246262,-5 C 12.295373,184.61172 17.231861,184.5 88.67667,184.5 c 75.37804,0 76.20562,0.0216 78.93821,2.06179 1.51885,1.13398 3.68935,3.30448 4.82333,4.82333 2.05632,2.75421 2.06179,3.0889 2.06179,126.11488 0,123.02598 -0.005,123.36067 -2.06179,126.11488 -1.13398,1.51885 -3.30423,3.68935 -4.82277,4.82333 -2.72454,2.03457 -3.74682,2.06468 -77.438213,2.28074 -61.232815,0.17954 -75.364271,-0.0284 -78.493423,-1.15491 z m 81.225002,-9.01688 c 5.687099,-2.94091 6.451223,-11.5456 1.379557,-15.53497 -5.440402,-4.27942 -14.382446,-1.41329 -15.805546,5.06604 -1.828623,8.32567 6.659212,14.48528 14.425989,10.46893 z M 162.58088,419.55887 C 163.78397,417.91324 164,402.39781 164,317.63761 164,226.00837 163.86177,217.50473 162.34501,215.82874 160.77082,214.08927 157.16766,214 88.536142,214 c -60.733486,0 -72.461121,0.22463 -74.095012,1.41924 -1.895741,1.38605 -1.94731,3.73364 -2.205433,100.39728 -0.171438,64.20146 0.08697,99.90196 0.735455,101.60761 0.549867,1.44625 2.018803,3.04356 3.264303,3.54957 1.32125,0.53679 31.977375,0.83802 73.595424,0.72316 69.336111,-0.19135 71.370561,-0.25114 72.750001,-2.13799 z M 108.8,205.8 c 0.66,-0.66 1.2,-2.145 1.2,-3.3 0,-4.1984 -1.4496,-4.5 -21.628571,-4.5 -16.147187,0 -19.480394,0.25182 -20.8,1.57143 C 66.707143,200.43571 66,201.75357 66,202.5 c 0,0.74643 0.707143,2.06429 1.571429,2.92857 1.319606,1.31961 4.652813,1.57143 20.8,1.57143 13.622221,0 19.578451,-0.34988 20.428571,-1.2 z m 92.23786,241.27073 c -1.11848,-2.08988 -1.42691,-13.89331 -0.43087,-16.48894 0.52827,-1.37666 3.48615,-1.58179 22.80887,-1.58179 17.57163,0 22.60671,-0.29538 24.14301,-1.41632 1.58913,-1.15949 2.0318,-3.01819 2.44113,-10.25 L 250.5,408.5 h 40.5 40.5 l 0.5,8.83368 c 0.40933,7.23181 0.852,9.09051 2.44113,10.25 1.56994,1.14548 7.55264,1.41632 31.28621,1.41632 h 29.34508 l -0.28621,9.75 -0.28621,9.75 -96.21214,0.25499 c -94.31988,0.24998 -96.23256,0.21685 -97.25,-1.68426 z m 2.03472,-64.70559 C 201.12238,379.88587 201,378.46601 201,358.31969 c 0,-21.39891 0.001,-21.41194 2.45455,-23.86514 L 205.90909,332 H 348.75455 C 458.52323,332 491.87787,331.72213 492.8,330.8 493.72035,329.87965 494,300.88484 494,206.38179 494,138.61177 493.72047,82.435127 493.37882,81.544802 491.55793,76.799635 500.61238,77 288,77 73.077427,77 84.826874,76.717938 82.029644,81.944609 81.375809,83.166312 81,97.594956 81,121.47632 v 37.60781 L 73.25,158.79206 65.5,158.5 65.238024,120.15134 c -0.176621,-25.854125 0.101317,-39.701234 0.853057,-42.500005 0.747683,-2.783671 2.810702,-5.84332 6.261976,-9.287097 C 76.627819,64.098762 78.432008,63.036847 83,62.09763 87.010298,61.273079 143.34811,61.038996 291,61.233392 L 493.5,61.5 l 4.71611,2.772296 c 4.81514,2.830502 8.90846,7.340503 10.6713,11.757587 0.86056,2.156269 1.0028,2.216001 1.11949,0.470117 l 0.13367,-2 0.85943,2 c 0.47269,1.1 0.85943,67.25 0.85943,147 0,79.75 -0.38674,145.9 -0.85943,147 l -0.85943,2 -0.10943,-2 c -0.0843,-1.54119 -0.4199,-1.28673 -1.4628,1.10918 -1.79211,4.11713 -8.03785,10.27122 -12.18113,12.00239 C 493.60435,384.77432 469.66501,385 349.1047,385 H 205.14516 Z m 89.6111,-17.30852 c 10.33868,-4.69391 9.46611,-19.21687 -1.38169,-22.99664 -3.76035,-1.31025 -4.5076,-1.27101 -8.29163,0.43535 -4.27175,1.92629 -8.01036,7.26135 -8.01036,11.43091 0,4.10601 3.29473,9.01056 7.42718,11.05613 4.94076,2.44568 5.03181,2.44634 10.2565,0.0743 z"
       style="fill:#b12522" />
  </g>
</svg>
