<?xml version="1.0" encoding="UTF-8" standalone="no"?>
<svg
   xmlns:dc="http://purl.org/dc/elements/1.1/"
   xmlns:cc="http://creativecommons.org/ns#"
   xmlns:rdf="http://www.w3.org/1999/02/22-rdf-syntax-ns#"
   xmlns:svg="http://www.w3.org/2000/svg"
   xmlns="http://www.w3.org/2000/svg"
   xmlns:xlink="http://www.w3.org/1999/xlink"
   viewBox="0 0 1600 1600"
   height="1600"
   width="1600"
   id="svg10"
   version="1.1">
  <metadata
     id="metadata16">
    <rdf:RDF>
      <cc:Work
         rdf:about="">
        <dc:format>image/svg+xml</dc:format>
        <dc:type
           rdf:resource="http://purl.org/dc/dcmitype/StillImage" />
        <dc:title></dc:title>
      </cc:Work>
    </rdf:RDF>
  </metadata>
  <defs
     id="defs14" />
  <image
     preserveAspectRatio="none"
     height="1600"
     width="1600" />
  <g
     id="g20">
    <path
       id="path36"
       d="M 0,800 V 0 h 800 800 v 800 800 H 800 0 Z"
       style="fill:#fefefe" />
    <path
       id="path34"
       d="M 795.76018,1523.4831 C 745.54539,1517.4049 699.47599,1498.0551 659,1466.0419 646.65567,1456.2785 390.99632,1201.5195 385.49493,1193.5 c -2.78408,-4.0584 -16.33961,-43.604 -71.9843,-210 L 244.95631,778.5 155.59219,689 C 71.912885,605.19347 66.101175,599.15012 64.233463,594 c -1.097028,-3.025 -2.286102,-7.3 -2.642387,-9.5 -0.84519,-5.21891 1.646567,-14.64366 5.417266,-20.49011 1.599772,-2.48044 17.439847,-18.97851 35.200168,-36.66237 34.26861,-34.12109 39.69418,-38.56613 54.12776,-44.34562 32.29479,-12.93146 75.25331,-11.80437 131.16373,3.44131 58.63338,15.98818 116.50279,46.96465 158.56231,84.87559 21.97173,19.80453 43.0916,47.64245 74.28711,97.91718 15.72055,25.33525 40.3164,67.57153 53.14664,91.26402 2.08489,3.85 4.25616,7.59247 4.82504,8.31659 0.79278,1.00914 69.47463,-67.08133 294.10661,-291.5742 231.78999,-231.64641 294.69439,-293.98664 300.82949,-298.13145 37.4416,-25.29479 83.5782,-28.96269 123.0816,-9.78507 26.5211,12.87516 44.8035,30.99309 57.6931,57.17413 13.0817,26.57121 16.2017,54.7078 9.1483,82.5 -4.5113,17.77579 -10.8924,31.2655 -21.7921,46.06887 -2.6044,3.53712 -53.1158,54.90063 -112.2477,114.14113 -89.5093,89.67376 -107.1883,107.82891 -105.5764,108.42016 33.6063,12.3273 51.7487,26.67917 67.4653,53.36984 11.0796,18.81589 18.0533,47.42595 16.4531,67.5 -0.3507,4.4 -1.7861,13.175 -3.1898,19.5 -1.4037,6.325 -2.6062,12.09518 -2.6724,12.82261 -0.079,0.8739 3.6117,2.27854 10.8798,4.14023 12.965,3.32095 19.321,5.73326 29.5,11.1963 33.4173,17.93494 55.287,52.01456 60.1886,93.79245 1.4312,12.19845 0.075,27.85953 -3.5986,41.54841 -1.3283,4.95 -2.3136,9.10338 -2.1895,9.22973 0.1241,0.12635 5.478,1.55623 11.8975,3.1775 34.3133,8.66595 59.5707,28.4019 75.5764,59.05499 8.0646,15.4449 12.0292,28.30789 14.1896,46.03778 2.4727,20.2934 -2.41,45.6499 -12.8053,66.5 -8.5311,17.1111 -5.8704,14.3085 -162.1559,170.7963 -82.2816,82.388 -151.0653,150.7122 -152.8528,151.8316 -1.7875,1.1194 -3.25,2.586 -3.25,3.2591 0,2.3604 -71.09521,71.8782 -81.29249,79.4888 -39.42972,29.4279 -83.37024,47.0091 -131.58551,52.6492 -15.18456,1.7762 -43.50965,1.7559 -58.36182,-0.042 z m 46.8446,-66.5228 c 16.74436,-1.35 29.77146,-4.025 46.16571,-9.4796 21.05992,-7.007 38.35328,-16.1515 57.22951,-30.2623 10.52356,-7.8668 370.9973,-367.8548 376.0793,-375.5726 6.1327,-9.3131 8.1246,-15.665 8.6756,-27.6645 0.5745,-12.5118 -0.6241,-19.17949 -5.1415,-28.60101 -6.1462,-12.81875 -17.9441,-23.18707 -31.8823,-28.01917 -5.9907,-2.07685 -9.1429,-2.51417 -18.3757,-2.54938 -16.3808,-0.0625 -24.1928,2.81951 -37.8554,13.96556 -11.1356,9.0845 -14.9959,10.70417 -25.5,10.6989 -7.3181,-0.004 -9.2249,-0.38443 -13.7131,-2.73837 -7.4554,-3.91014 -11.5366,-7.84047 -15.0075,-14.45261 -4.7735,-9.09358 -5.7616,-14.85459 -3.8365,-22.36893 0.8811,-3.439 2.5668,-7.86452 3.7462,-9.83451 1.1794,-1.96998 11.4442,-13.03178 22.8108,-24.58178 22.3541,-22.71493 25.0941,-26.59367 28.6098,-40.5 2.1656,-8.56587 1.4247,-24.00339 -1.5597,-32.5 -5.0599,-14.4052 -17.3515,-27.03256 -32.3782,-33.26238 -5.0533,-2.09503 -8.2875,-2.64212 -17.8456,-3.01873 -17.6867,-0.69688 -27.4845,2.68392 -40.9786,14.13993 -13.8005,11.71616 -26.1305,14.05871 -39.197,7.44693 -9.4447,-4.77908 -17.6724,-16.09991 -19.2248,-26.45214 -0.7336,-4.89193 0.9117,-12.97719 3.8367,-18.85361 1.1099,-2.22993 11.1497,-13.29285 22.6878,-25 27.4205,-27.82211 30.4568,-33.24458 30.5169,-54.5 0.027,-9.51235 -0.3714,-12.66947 -2.3043,-18.26623 -6.2022,-17.95874 -21.2294,-31.55687 -40.1629,-36.34349 -8.8889,-2.24722 -24.1808,-1.4648 -32.5,1.66287 -7.482,2.81295 -9.2607,3.90318 -18.1861,11.14724 -12.1697,9.87727 -21.6168,13.10495 -31.5285,10.77208 -11.2384,-2.64512 -19.0864,-8.77589 -23.9934,-18.74342 -2.85376,-5.7968 -3.28786,-7.68821 -3.26094,-14.20802 0.0616,-14.92498 -12.39747,-1.32162 152.51424,-166.52103 81.2582,-81.4 148.8586,-149.81423 150.2231,-152.03162 1.3646,-2.21739 3.6624,-7.30671 5.1063,-11.3096 2.2513,-6.2411 2.6253,-8.89285 2.6253,-18.61304 0,-18.43168 -4.8553,-29.7669 -17.9141,-41.82233 -11.1351,-10.27956 -21.4383,-14.16158 -37.5859,-14.16158 -11.6269,0 -16.8756,1.19926 -27,6.16914 -4.0135,1.97016 -66.1621,63.5734 -315,312.23567 C 554.80852,889.41349 587.13933,858.5 571.5,858.5 c -6.79936,0 -8.88457,-0.43433 -13.894,-2.894 -8.62001,-4.2325 -12.32687,-8.57254 -21.06629,-24.66473 C 480.47678,727.71074 429.49177,647.90253 404.32539,623.98264 360.85406,582.66443 287.35074,549.21954 226.14571,542.90875 c -15.62414,-1.61099 -33.71996,-0.7279 -42.64571,2.08116 -6.84342,2.15372 -7.38026,2.58074 -24,19.09049 l -17,16.88749 78.66363,78.76606 c 44.75691,44.81519 79.97754,80.87196 81.7119,83.65176 2.10019,3.36614 24.2118,68.37627 71.09284,209.01941 l 68.04456,204.13368 127.74354,127.6166 c 98.86638,98.768 129.89106,129.1886 137.24353,134.5712 19.61,14.3559 35.9969,22.6965 59,30.0298 24.64063,7.8554 48.81615,10.4444 76.60478,8.2039 z M 468.5,318.66119 c -2.2,-0.72878 -5.575,-2.12134 -7.5,-3.0946 -1.925,-0.97325 -34.18898,-32.40841 -71.69773,-69.85591 -61.49051,-61.39008 -68.47118,-68.68257 -70.97804,-74.14852 -5.7665,-12.57328 -2.65649,-27.30077 7.83807,-37.1172 7.17606,-6.71237 12.63064,-8.89061 22.3377,-8.92041 15.10846,-0.0464 9.7206,-4.5311 86.31925,71.85013 37.57558,37.46892 69.39348,69.93141 70.70644,72.13885 10.02631,16.85698 3.11923,37.97464 -15.2772,46.70846 -7.3008,3.46609 -15.77832,4.41689 -21.74849,2.4392 z m 315.36274,-0.51157 c -12.46018,-4.11877 -20.46263,-13.05148 -23.76051,-26.52261 -1.46503,-5.98433 -0.10213,-13.8948 3.56884,-20.71396 1.6633,-3.08972 24.88702,-26.95852 71.14911,-73.1254 C 911.79857,120.9677 906.36391,125.5 921.5,125.5 c 6.7174,0 8.90447,0.44418 13.64151,2.77047 13.42289,6.5918 21.91975,22.73692 18.86791,35.85145 -0.68833,2.95794 -2.35369,7.44232 -3.70079,9.96529 -1.66598,3.12017 -24.25379,26.33627 -70.62896,72.59351 -60.58884,60.43478 -68.78616,68.25895 -73.6271,70.27552 -7.45281,3.1046 -15.15487,3.51881 -22.18983,1.19338 z M 627,287.12275 C 614.12416,282.87323 605.72419,274.13962 602.35609,261.5 c -2.04004,-7.65577 -1.94847,-198.68512 0.0989,-206.377615 3.15297,-11.846332 12.54368,-21.132679 24.94685,-24.669606 7.31427,-2.08576 12.87687,-1.446768 21.16377,2.431142 10.03326,4.69513 15.99115,12.071371 19.07501,23.616079 1.955,7.318732 1.95394,196.3411 -10e-4,204.64745 -2.5817,10.96853 -9.11601,18.89228 -19.49975,23.64611 -5.80358,2.65697 -16.55674,3.84176 -21.13975,2.32919 z"
       style="fill:#f4d4d4" />
    <path
       id="path32"
       d="M 794.76018,1522.4831 C 745.74732,1516.5504 699.25117,1496.8774 659,1465.0418 646.65574,1455.2784 391.99541,1201.5183 386.4949,1193.5 c -2.78409,-4.0585 -16.33868,-43.6024 -71.98238,-210 l -68.55241,-205 -88.94039,-89 c -99.593545,-99.6603 -94.326729,-93.63305 -94.373992,-108 -0.04227,-12.85026 1.173221,-14.50295 37.747152,-51.3244 34.02469,-34.25494 40.77175,-39.87045 55.24191,-45.97732 29.33498,-12.3803 71.51682,-12.23838 121.81235,0.40983 51.55364,12.9646 104.81022,38.05266 144.80978,68.21686 31.30571,23.60804 49.1251,43.24608 76.59385,84.41101 20.67345,30.98143 54.46998,87.58442 74.04633,124.01402 2.88167,5.3625 5.54363,9.75 5.91546,9.75 0.37183,0 132.52862,-131.77089 293.68175,-292.82421 C 1100.042,250.76905 1167.1755,184.22343 1173,180.3017 c 39.4805,-26.58298 85.554,-29.59453 126.8891,-8.294 23.3341,12.02438 40.8421,29.72608 52.7692,53.35306 21.3206,42.23493 16.7778,90.25682 -12.2702,129.70811 -2.6044,3.53712 -53.1205,54.90527 -112.258,114.15145 -59.1375,59.24618 -107.3219,107.91496 -107.0764,108.15285 0.2454,0.23789 5.1389,2.28905 10.8743,4.55815 32.1145,12.70538 52.3454,32.5308 65.3986,64.08783 10.2632,24.81214 11.9744,49.84984 5.2221,76.40974 -1.3884,5.46089 -2.3468,10.10639 -2.1298,10.32333 0.2169,0.21695 3.6275,1.06361 7.5791,1.88148 23.562,4.87666 47.0384,17.7513 61.8225,33.90388 27.6984,30.2622 38.7498,75.66428 27.6996,113.79645 -1.3861,4.7829 -2.5201,8.85584 -2.5201,9.05098 0,0.19513 2.8125,0.90718 6.25,1.58234 22.7359,4.46554 45.2962,15.90958 59.9305,30.40052 16.852,16.68699 29.3053,40.04266 34.4622,64.63213 2.4412,11.64057 2.4128,33.4406 -0.059,45 -3.8923,18.205 -12.3436,37.1941 -22.6601,50.9146 -3.4346,4.5678 -64.9225,66.5974 -154.5638,155.9253 -81.8731,81.587 -149.7602,149.2425 -150.8602,150.3457 -1.1,1.1032 -17.3,17.4191 -36,36.2575 -18.7,18.8383 -37.26107,36.8133 -41.24683,39.9443 -39.27642,30.8535 -86.42375,50.4399 -135.13117,56.1376 -15.26349,1.7854 -45.43841,1.7645 -60.36182,-0.042 z m 46.8446,-64.5172 c 38.64404,-3.099 72.73073,-16.0771 104.39522,-39.7474 11.17876,-8.3565 373.6926,-370.7585 378.0272,-377.9106 5.1691,-8.529 7.1907,-15.5572 7.7111,-26.8079 0.7898,-17.07646 -3.6144,-29.85158 -14.2526,-41.34207 -11.7703,-12.71337 -24.648,-18.30384 -42.1931,-18.31696 -16.3075,-0.0122 -24.9608,3.24953 -38.7926,14.62237 -14.0109,11.5201 -25.1873,13.56036 -38.3126,6.994 -8.1566,-4.08056 -11.2838,-7.38131 -15.5923,-16.45734 -2.5082,-5.28382 -3.0723,-7.71618 -3.015,-13 0.1257,-11.58268 2.7004,-15.41188 26.8954,-40 23.3329,-23.71205 25.926,-27.42827 29.1029,-41.7077 3.1761,-14.27603 0.2641,-32.18694 -6.972,-42.8819 -4.4381,-6.55958 -11.6751,-13.77164 -18.1001,-18.03756 -8.11,-5.38479 -15.5904,-7.59614 -27.5188,-8.13514 -17.1824,-0.77643 -27.6343,2.79446 -41.0338,14.01921 -4.1504,3.47684 -10.0004,7.3945 -13,8.70591 -20.3774,8.90907 -44.5039,-7.63237 -44.4315,-30.46282 0.039,-12.16776 2.2883,-15.57984 26.3309,-39.93532 26.0896,-26.42908 29.3542,-31.8461 30.7553,-51.03306 1.1223,-15.36829 -3.8198,-29.89923 -13.992,-41.1399 -10.9814,-12.13483 -23.3708,-18.17693 -39.1164,-19.07638 -16.402,-0.93694 -28.0564,2.9354 -41,13.62287 -10.8877,8.98991 -16.4691,11.51048 -25.5,11.51591 -13.0058,0.008 -23.43314,-6.49467 -29.20021,-18.20925 -2.8477,-5.78448 -3.29944,-7.73325 -3.29727,-14.22384 0.005,-14.82679 -12.33978,-1.35083 152.54278,-166.52103 81.2582,-81.4 148.9154,-149.90416 150.3493,-152.23147 10.1091,-16.40767 10.331,-42.51585 0.5,-58.82599 -4.2159,-6.99443 -16.2283,-18.56446 -22.6558,-21.82151 -16.3511,-8.28575 -36.9387,-8.2628 -53.6961,0.0599 -4.0396,2.00628 -66.7096,64.1279 -315.0427,312.28575 C 554.80852,888.41349 587.13933,857.5 571.5,857.5 c -6.77885,0 -8.88972,-0.43688 -13.82874,-2.86207 -8.42095,-4.13492 -11.44099,-7.69372 -20.17158,-23.77002 C 481.06567,726.95162 430.62642,648.10397 404.84535,623.5 357.81729,578.61913 278.01127,544.09681 214.83064,541.30385 200.011,540.64874 189.17703,541.84438 180.5,545.09261 c -4.10972,1.53846 -8.02519,4.90207 -21.99018,18.89077 l -16.99018,17.01904 78.65381,78.74879 c 44.7631,44.81716 79.96726,80.85397 81.70208,83.6345 2.10019,3.36614 24.21179,68.37625 71.09282,209.01934 l 68.04453,204.13365 128.24356,128.1166 c 134.02468,133.8921 134.63033,134.4638 156.06187,147.3129 23.03019,13.8076 54.15756,23.6202 82.27307,25.9358 14.55298,1.1987 19.7209,1.2081 34.0134,0.062 z M 465.5,316.54337 c -3.3,-1.39376 -6.21078,-2.53619 -6.4684,-2.53874 -0.25762,-0.003 -31.00401,-30.49213 -68.3253,-67.75463 -76.77198,-76.65105 -74.16491,-73.56643 -74.16491,-87.75 0,-7.038 0.38215,-8.73591 3.178,-14.11986 6.28714,-12.10708 17.69956,-18.85889 30.78061,-18.21039 13.28144,0.65842 10.69075,-1.56863 86.1333,74.04365 65.07665,65.22308 68.23433,68.55578 70.38526,74.2866 6.00005,15.98619 -0.79731,32.80683 -16.45857,40.72812 -8.56657,4.33288 -16.88183,4.7693 -25.05999,1.31525 z m 317.71872,0.53711 C 764.86753,310.29266 755.804,290.99233 762.98789,274 c 2.06308,-4.87987 9.94649,-13.14671 69.91868,-73.3193 37.93377,-38.06052 69.54428,-68.97795 72.03935,-70.45983 21.08359,-12.52207 48.49526,3.45932 48.54112,28.30016 0.0109,5.90323 -0.49749,8.05252 -3.19323,13.5 -2.88138,5.8226 -10.07421,13.32669 -71,74.0724 -60.04889,59.8714 -68.42214,67.8604 -73.29381,69.93037 -7.45212,3.1664 -16.00501,3.56311 -22.78128,1.05668 z M 621.48804,283.72199 c -7.98419,-3.88933 -12.58575,-8.57217 -16.38693,-16.67636 L 602.5,261.5 v -103 -103 l 2.894,-5.894003 c 3.67871,-7.492155 8.76158,-12.567397 16.21818,-16.193836 4.88236,-2.374487 7.16859,-2.863103 13.38782,-2.861268 6.46942,0.0019 8.34146,0.438368 13.62373,3.176316 7.98214,4.137368 12.01153,8.287554 15.79268,16.266121 L 667.5,56.5 V 159 261.5 l -2.60111,5.54563 c -3.59396,7.6624 -7.75151,12.06417 -15.08832,15.97465 -5.12184,2.72992 -7.62795,3.40746 -13.78522,3.72696 -6.936,0.3599 -8.0745,0.12297 -14.53731,-3.02525 z"
       style="fill:#eaafaf" />
    <path
       id="path30"
       d="m 793.76018,1521.4831 c -40.09451,-4.8532 -79.56515,-19.2972 -112.94123,-41.3299 -22.3393,-14.7469 -28.41039,-20.5119 -160.6333,-152.5346 -71.12289,-71.0153 -130.85408,-131.1953 -132.73597,-133.7335 -2.89334,-3.9023 -13.99967,-36.2352 -71.93565,-209.41973 C 277.83131,871.82267 247,779.40769 247,779.09874 247,778.7898 206.74834,738.25369 157.55187,689.01851 57.817005,589.20517 63.682899,595.92089 63.639029,581.5 c -0.04002,-13.15599 0.177455,-13.45251 37.276361,-50.82418 40.01334,-40.30754 46.24846,-44.8657 69.13733,-50.54264 64.90335,-16.09746 176.08023,16.07119 251.2042,72.68507 31.53423,23.76438 50.06726,44.16613 77.59385,85.41773 20.67345,30.98143 54.46998,87.58442 74.04633,124.01402 2.88167,5.3625 5.54363,9.75 5.91547,9.75 0.37184,0 132.75363,-131.9959 294.18175,-293.32421 C 1100.9953,250.81573 1168.1739,184.22473 1174,180.30256 c 21.4643,-14.44981 43.9819,-21.28949 70.119,-21.29854 59.7564,-0.0207 109.4689,42.42656 119.4256,101.97209 2.3907,14.29719 1.5982,34.66519 -1.8717,48.10898 -4.4805,17.35895 -10.8385,30.79606 -21.2847,44.98378 -2.6043,3.53712 -53.353,55.13775 -112.7747,114.66807 -65.5895,65.70929 -107.6612,108.57956 -107.0766,109.10895 0.5297,0.4796 4.5127,2.14339 8.851,3.69731 23.2018,8.31043 41.4421,21.99986 54.5196,40.91714 20.5159,29.67721 26.7584,65.10777 17.7169,100.55586 -1.3304,5.21609 -2.1277,9.79574 -1.7717,10.177 0.356,0.38126 4.1727,1.4198 8.4816,2.30786 23.979,4.94216 45.0091,16.44113 60.5992,33.13478 27.8654,29.83802 38.6116,73.53871 27.9276,113.57069 -1.1312,4.2386 -1.8756,8.24996 -1.6542,8.91414 0.2214,0.66418 5.3565,2.42564 11.4114,3.91435 36.1933,8.89892 61.3019,28.78055 77.6241,61.46498 8.6348,17.29066 12.2007,33.09482 12.1841,54 -0.02,25.5899 -6.1896,46.3673 -20.1905,68 -3.4912,5.3942 -38.7348,41.2552 -153.6333,156.3247 -82.0065,82.1286 -151.0152,150.6627 -153.3527,152.2981 -2.3375,1.6353 -4.25,3.5289 -4.25,4.2081 0,1.7538 -67.06622,68.2252 -75.5,74.8304 -39.48216,30.9216 -84.62781,49.661 -133.378,55.3637 -15.33531,1.7938 -47.3738,1.7723 -62.36182,-0.042 z m 46.8446,-62.5172 c 38.8333,-3.1142 74.11434,-16.6253 106.39522,-40.7447 4.53492,-3.3884 80.2804,-78.3703 191.594,-189.6625 172.6748,-172.6417 184.3193,-184.4993 187.7273,-191.1618 16.5254,-32.3066 0.6266,-71.04253 -33.6229,-81.9193 -6.0936,-1.93516 -9.94,-2.4776 -17.5685,-2.4776 -15.5933,0 -25.5418,3.87755 -39.5961,15.43306 -9.1425,7.51698 -14.8075,9.80731 -24.125,9.75355 -11.9576,-0.069 -22.0466,-6.64106 -27.6383,-18.00376 -2.8376,-5.76629 -3.2644,-7.64127 -3.2248,-14.16445 0.073,-11.93504 2.0835,-14.94975 26.36,-39.5184 17.9267,-18.14238 21.2406,-21.98607 24.3533,-28.24642 11.7156,-23.56275 7.4603,-49.69227 -11.0354,-67.76313 -10.5825,-10.33938 -22.3597,-15.47888 -37.2243,-16.24449 -16.1518,-0.83192 -28.385,3.54896 -42.1566,15.09692 -9.396,7.87887 -14.9226,10.17049 -24.4013,10.11814 -5.6015,-0.0309 -8.2074,-0.60109 -12.6245,-2.76217 -11.9929,-5.86756 -19.4304,-18.1718 -18.5663,-30.71496 0.7879,-11.43701 2.6783,-14.19843 25.6121,-37.41232 21.8478,-22.1147 26.1506,-27.85575 29.5148,-39.38069 5.826,-19.95796 0.4047,-41.33025 -14.244,-56.15386 -10.794,-10.92294 -23.1482,-16.7377 -37.6064,-17.70022 -15.3439,-1.02148 -28.199,3.37515 -41.4829,14.18773 -11.7409,9.55658 -14.9292,10.95105 -25.0442,10.9537 -10.434,0.003 -15.7686,-2.15161 -22.84129,-9.22428 -8.80055,-8.80055 -11.49364,-21.78359 -7.0457,-33.96644 C 994.1417,611.73097 1000.1418,605.57364 1142.46,463 c 95.9286,-96.1007 149.1561,-150.12662 150.8471,-153.10985 5.0335,-8.8802 7.6929,-18.87843 7.6929,-28.92212 0,-17.16176 -4.8011,-28.78705 -16.9664,-41.08199 -11.8072,-11.93316 -24.3174,-17.26034 -40.5336,-17.26034 -10.0237,0 -17.3359,1.7775 -26.9477,6.55065 -5.3795,2.6714 -40.5144,37.44253 -316.0523,312.77948 -253.21576,253.03111 -310.91587,310.21084 -315,312.15906 -4.12231,1.96643 -6.57983,2.38511 -14,2.38511 -16.17269,0 -22.02021,-4.57307 -33.96029,-26.55873 C 481.47678,726.71074 430.49177,646.90253 405.32539,622.98264 358.60503,578.57633 277.44472,543.35506 214.83258,540.31418 200.87322,539.63621 190.15291,540.88006 181,544.23966 c -4.72326,1.73369 -7.86554,4.36065 -22.25,18.60114 -9.2125,9.12029 -16.75,17.27575 -16.75,18.12323 0,0.84748 34.47277,35.96477 76.60616,78.03842 42.13338,42.07365 78.54501,79.08243 80.91472,82.24172 4.08751,5.44946 7.80723,16.24949 72.49987,210.5 l 68.1913,204.75583 128.14397,128.1381 c 133.1347,133.1286 134.36849,134.2966 155.14398,146.8691 24.30295,14.7073 56.36764,25.0311 85.09138,27.3968 14.52061,1.196 17.79251,1.2023 32.0134,0.062 z M 465,315.89313 c -5.03277,-1.94331 -11.30424,-7.91188 -73.82401,-70.25843 -50.04785,-49.90918 -69.03735,-69.47216 -70.99079,-73.1347 -2.32114,-4.35194 -2.66678,-6.16651 -2.66678,-14 0,-7.83114 0.34877,-9.66334 2.68547,-14.1076 3.56577,-6.78185 11.49915,-13.80089 18.06275,-15.98096 6.5287,-2.16849 14.99958,-2.13231 21.90777,0.0936 5.03416,1.62204 9.13642,5.52678 74.96512,71.35547 66.21125,66.21125 69.72968,69.91029 71.4708,75.13953 5.30681,15.93832 -1.26067,32.14809 -16.11033,39.76333 -7.0268,3.60351 -17.85153,4.0831 -25.5,1.1298 z m 318,0.43904 c -17.78711,-6.21506 -26.47828,-26.07276 -18.93071,-43.25313 1.58445,-3.60664 16.3903,-18.98041 69.72118,-72.39549 C 871.03071,163.38451 903.3,131.80672 905.5,130.5107 c 11.97884,-7.05675 28.83441,-4.3808 38.50761,6.11338 6.3345,6.87212 8.45964,12.35602 8.47744,21.87592 0.0264,14.15001 3.14831,10.45905 -73.69845,87.1333 -64.74458,64.59923 -68.5868,68.24309 -74.07411,70.25 -6.87257,2.51354 -15.30462,2.68786 -21.71249,0.44887 z M 621.5,283.21604 c -6.79896,-3.29037 -12.72057,-9.29821 -15.86267,-16.09364 L 603.5,262.5 v -104 -104 l 2.4476,-4.97392 c 3.12701,-6.354571 9.18765,-12.404654 15.5524,-15.525316 4.10678,-2.013569 6.51847,-2.45341 13.5,-2.462111 7.33635,-0.0091 9.21415,0.363946 13.71657,2.725284 6.92539,3.632079 11.96894,8.837266 15.16361,15.649581 L 666.5,55.5 V 159 262.5 l -2.77978,5.66054 c -3.07609,6.26392 -8.38598,11.59164 -14.92516,14.97527 -3.17153,1.64107 -6.51855,2.32203 -12.79506,2.60319 -7.75613,0.34744 -9.02508,0.12665 -14.5,-2.52296 z"
       style="fill:#e18c8c" />
    <path
       id="path28"
       d="M 794.76018,1521.4831 C 745.74725,1515.5503 699.25064,1495.8772 659,1464.0417 646.65581,1454.2783 392.99449,1201.5171 387.49487,1193.5 c -2.78403,-4.0584 -16.3393,-43.6043 -71.98235,-210 l -68.55241,-205 -88.94039,-89 c -99.593545,-99.6603 -94.326729,-93.63305 -94.373992,-108 -0.04219,-12.82482 1.224668,-14.55346 37.247522,-50.82461 33.49633,-33.72722 40.30705,-39.38529 54.74154,-45.47711 29.33498,-12.3803 71.51682,-12.23838 121.81235,0.40983 51.56353,12.96709 104.85096,38.07179 144.80978,68.2226 31.05196,23.43016 48.1939,42.34345 75.59385,83.40527 20.66689,30.9716 54.47263,87.58892 74.03266,123.98874 2.87415,5.34859 5.7027,10.01949 6.28566,10.37978 0.58857,0.36376 131.42043,-129.6247 294.19542,-292.29892 C 1100.0146,251.79642 1167.1755,185.22346 1173,181.3017 c 39.4805,-26.58298 85.554,-29.59453 126.8891,-8.294 23.1705,11.94007 39.918,28.87646 51.7692,52.35306 21.3206,42.23493 16.7778,90.25682 -12.2702,129.70811 -2.6044,3.53712 -53.0321,54.81686 -112.0617,113.95497 C 1168.2969,528.16196 1120,576.99468 1120,577.541 c 0,0.54632 3.6414,2.28714 8.092,3.8685 33.1564,11.78078 54.8979,32.36727 68.2346,64.60965 10.3188,24.94657 11.9741,49.7481 5.1266,76.81682 -1.438,5.68478 -2.4527,10.49781 -2.2549,10.69563 0.1978,0.19782 3.872,1.08518 8.1649,1.9719 23.942,4.94536 47.7032,17.81339 61.9685,33.55944 27.2865,30.11884 38.1524,75.43644 27.1725,113.32581 -1.3948,4.813 -2.3147,9.10879 -2.0444,9.54619 0.2703,0.4374 3.315,1.34983 6.7658,2.02762 22.5416,4.42741 45.2355,15.86748 59.4818,29.98501 16.4072,16.25896 28.8293,39.70541 33.9353,64.05243 2.4412,11.64057 2.4128,33.4406 -0.059,45 -3.4723,16.2407 -10.1536,32.299 -19.3471,46.5 -3.4889,5.3894 -38.608,41.1343 -152.6343,155.3544 -86.4668,86.6137 -150.2876,149.7803 -153.3527,151.7807 -3.0337,1.9799 -5.25,4.1664 -5.25,5.1794 0,2.1397 -63.5958,65.5781 -73.74683,73.5643 -39.17,30.8164 -86.41877,50.448 -135.13117,56.1462 -15.26349,1.7854 -45.43841,1.7645 -60.36182,-0.042 z m 46.8446,-62.5172 c 38.64402,-3.099 72.73049,-16.0771 104.39522,-39.7474 11.1789,-8.3566 374.6925,-371.7584 379.0273,-378.9107 5.169,-8.5289 7.1906,-15.5572 7.711,-26.8078 0.8032,-17.36666 -3.654,-29.99169 -14.792,-41.89821 -12.3812,-13.23557 -24.913,-18.74755 -42.6537,-18.76082 -16.3075,-0.0122 -24.9608,3.24953 -38.7926,14.62237 -14.0333,11.53852 -25.1826,13.56271 -38.3687,6.96597 -7.8333,-3.91886 -10.6029,-6.90243 -14.826,-15.9715 -2.173,-4.66669 -2.7613,-7.36643 -2.7144,-12.45781 0.1065,-11.57406 2.6779,-15.39996 26.8846,-40 23.3329,-23.71205 25.926,-27.42827 29.1029,-41.7077 3.1879,-14.32918 0.2643,-32.1861 -7.0366,-42.97783 -4.5258,-6.68982 -12.3937,-14.53173 -18.9422,-18.87973 -8.2035,-5.44676 -15.6466,-7.65636 -27.6121,-8.19704 -17.1824,-0.77643 -27.6343,2.79446 -41.0338,14.01921 -9.6829,8.1114 -16.3536,11.08251 -24.9537,11.11437 -22.6939,0.0841 -38.2614,-24.22138 -28.6983,-44.8066 2.2542,-4.85233 6.5515,-9.77886 23.5514,-27 26.0896,-26.42908 29.3542,-31.8461 30.7553,-51.03306 1.1439,-15.66423 -3.8781,-30.08008 -14.5276,-41.70216 -11.5948,-12.65367 -23.666,-18.60501 -39.5808,-19.51412 -16.402,-0.93694 -28.0564,2.9354 -41,13.62287 -10.8877,8.98991 -16.4691,11.51048 -25.5,11.51591 -12.874,0.008 -22.67132,-5.97847 -28.2151,-17.23948 -2.83184,-5.75229 -3.28455,-7.70989 -3.28238,-14.19361 0.005,-14.82679 -12.33978,-1.35083 152.54278,-166.52103 81.2582,-81.4 148.9154,-149.90416 150.3493,-152.23147 10.109,-16.40749 10.331,-42.52519 0.5,-58.82107 -4.007,-6.64209 -13.0045,-16.00703 -19.5343,-20.33223 -16.203,-10.73241 -39.1632,-11.68915 -57.8603,-2.41101 -3.9852,1.97757 -67.9189,65.35569 -315,312.26242 C 554.80852,887.41349 587.13933,856.5 571.5,856.5 c -6.75134,0 -8.89645,-0.4402 -13.74339,-2.82032 -8.20092,-4.02709 -10.60475,-6.87889 -19.30927,-22.9077 C 481.65022,726.18377 431.73449,648.26288 405.34964,623 c -47.29618,-45.285 -127.01849,-79.88905 -190.519,-82.69615 -14.81987,-0.65512 -25.65394,0.54057 -34.33064,3.78887 -4.12169,1.54304 -8.07237,4.94922 -22.49034,19.39062 l -17.49033,17.51877 78.65396,78.74894 c 44.7632,44.81726 79.96742,80.85413 81.70224,83.63466 2.10019,3.36614 24.21179,68.37623 71.09279,209.01926 l 68.04452,204.13353 128.74358,128.6168 c 134.55296,134.4204 135.12522,134.9607 156.56189,147.8129 23.03019,13.8076 54.15756,23.6202 82.27307,25.9358 14.55298,1.1987 19.7209,1.2081 34.0134,0.062 z M 465.5,315.54337 c -3.3,-1.39376 -6.21068,-2.53619 -6.46817,-2.53874 -0.2575,-0.003 -30.7789,-30.26713 -67.82535,-67.25463 -76.2197,-76.09843 -73.66509,-73.07271 -73.66509,-87.25 0,-7.04181 0.38153,-8.73475 3.18539,-14.13449 7.6651,-14.76161 24.07043,-21.06435 39.84401,-15.30761 5.68223,2.07378 8.78841,5.02312 74.5683,70.80301 65.67415,65.67416 68.73611,68.89827 70.88526,74.63909 5.91641,15.80396 -0.42682,32.12239 -15.43771,39.71466 -8.59473,4.34709 -16.89866,4.7869 -25.08664,1.32871 z m 317.64243,0.51024 c -5.1828,-1.91573 -11.2542,-5.83804 -13.95123,-9.01292 -0.71984,-0.84738 -2.74268,-4.46569 -4.49521,-8.04069 -2.63503,-5.3752 -3.17318,-7.6248 -3.10988,-13 0.15801,-13.41942 -2.6795,-10.06834 71.82055,-84.81935 37.63809,-37.76487 69.04518,-68.47857 71.53926,-69.95983 20.94824,-12.44145 47.4959,2.80338 47.54112,27.30021 0.0109,5.90318 -0.4975,8.05256 -3.19318,13.5 -2.88072,5.82134 -10.03658,13.28906 -70.5,73.57231 -59.59206,59.4145 -67.92334,67.36082 -72.79386,69.43038 -7.48499,3.18048 -16.00128,3.5642 -22.85757,1.02989 z M 621.45403,282.70569 C 613.58964,278.87501 609.91217,275.11573 606.09016,267 L 603.5,261.5 v -103 -103 l 2.86207,-5.828739 c 3.62952,-7.391673 7.95309,-11.708369 15.31337,-15.289027 4.81591,-2.342862 7.12335,-2.83317 13.32456,-2.831341 6.43941,0.0019 8.34899,0.4425 13.5037,3.115723 7.8619,4.077173 11.12777,7.439239 14.89466,15.333384 L 666.5,56.5 V 159 261.5 l -2.59016,5.5 c -3.64012,7.72949 -6.86022,11.16191 -14.0831,15.01166 -5.13884,2.73898 -7.6396,3.41585 -13.80139,3.73558 -6.9419,0.3602 -8.07163,0.12439 -14.57132,-3.04155 z"
       style="fill:#de8080" />
    <path
       id="path26"
       d="m 795.76018,1521.4831 c -40.29335,-4.8773 -81.19697,-19.7143 -113.94123,-41.3299 -22.34593,-14.7513 -28.3936,-20.495 -161.13327,-153.0346 C 449.28781,1255.8284 389.40084,1195.475 387.60352,1193 c -2.66229,-3.6661 -15.99649,-42.5801 -71.95831,-210 l -68.69047,-205.5 -89.78508,-90 C 72.236295,602.36333 67.281509,597.2028 65.477256,592 c -2.709007,-7.81177 -2.407004,-15.28506 0.911574,-22.55757 2.339364,-5.12662 7.132228,-10.38115 34.9114,-38.27423 17.70987,-17.78249 34.97165,-34.3305 38.35949,-36.77336 37.64042,-27.14115 107.36952,-23.91785 191.21982,8.83935 41.27798,16.12578 82.07142,41.04331 113.35705,69.241 22.53507,20.31081 43.72543,48.17307 75.11152,98.76079 17.75015,28.60947 44.84755,75.29855 55.19967,95.10956 1.62372,3.10734 3.62466,5.65078 4.44654,5.65208 0.82188,10e-4 133.57188,-131.99352 295,-293.32183 C 1102.0719,250.73917 1169.1719,184.2263 1175,180.3037 c 20.285,-13.65283 45.067,-21.28962 69.119,-21.29968 23.3208,-0.01 49.3286,8.3059 68.6657,21.95492 27.3278,19.28923 44.8549,47.4425 50.6902,81.42205 5.2363,30.49191 -3.6463,64.7526 -23.7537,91.61901 -2.264,3.025 -52.9462,54.43365 -112.6273,114.24145 -68.787,68.93309 -108.1601,109.08838 -107.5525,109.68914 0.5273,0.52123 4.7836,2.34742 9.4586,4.05818 37.5123,13.72727 61.9399,40.74876 72.4963,80.19467 5.4486,20.35961 5.4162,37.54667 -0.113,59.92819 -1.4823,6.00043 -2.442,11.16304 -2.1325,11.47246 0.3094,0.30942 3.7793,1.22836 7.7109,2.0421 9.942,2.05771 26.2926,7.84855 34.0383,12.05525 31.3899,17.04785 52.7004,48.83163 58.5454,87.31856 2.4252,15.96867 1.466,30.11866 -3.1652,46.69301 -1.4128,5.05615 -2.2934,9.63838 -1.957,10.18272 0.3364,0.54434 3.1913,1.51674 6.3442,2.16089 23.9136,4.88558 44.2834,15.25649 59.418,30.25159 17.6602,17.4974 28.859,38.40352 34.3964,64.21179 2.3957,11.16534 2.3994,32.2912 0.01,43.4731 -4.0185,18.7878 -11.8798,36.9722 -21.6273,50.0269 -6.2078,8.3142 -303.7078,305.5767 -306.7123,306.4676 -1.2375,0.367 -2.25,1.4391 -2.25,2.3826 0,2.0949 -65.72516,67.6556 -75.5,75.3111 -39.1845,30.6885 -85.07849,49.5968 -134.378,55.3637 -15.18456,1.7762 -43.50965,1.7559 -58.36182,-0.042 z m 46.8446,-62.5172 c 38.42492,-3.0814 72.74494,-16.3492 105.39522,-40.7448 4.53351,-3.3873 80.1206,-78.2072 191.1021,-189.1624 181.0261,-180.9833 183.6588,-183.6709 187.6393,-191.5587 4.8211,-9.5536 6.2586,-15.7548 6.2586,-27 0,-10.82046 -1.4095,-17.30132 -5.6817,-26.12409 -8.311,-17.16355 -25.2876,-29.23599 -44.0753,-31.34295 -18.5613,-2.08157 -31.9462,2.01551 -47.5354,14.55046 -9.5021,7.6404 -15.9006,10.41658 -24.008,10.41658 -16.1138,0 -31.0534,-15.41507 -31.0128,-32 0.026,-10.66396 2.4226,-14.19623 25.7827,-38 17.4744,-17.80638 21.7336,-22.72029 24.7922,-28.60311 4.5508,-8.75302 6.7095,-17.57223 6.7062,-27.39689 -0.01,-17.10261 -4.9266,-29.026 -16.9343,-41.03365 C 1208.7557,798.68839 1197.4167,794 1180,794 c -16.3338,0 -26.3382,3.83713 -40.2237,15.42753 -15.7019,13.10665 -30.5617,13.3475 -43.9207,0.71185 -4.8488,-4.58621 -6.4191,-6.90845 -8.4089,-12.43487 -2.9867,-8.29531 -3.0279,-10.61216 -0.3432,-19.30425 2.0757,-6.7203 2.3904,-7.1021 23.7796,-28.85534 19.8541,-20.19203 22.0345,-22.75935 25.9411,-30.54492 14.4015,-28.70111 2.7234,-63.80155 -25.9098,-77.87634 C 1101.6036,636.54693 1095.0692,635 1085.0472,635 c -15.3005,0 -26.1485,4.06145 -39.1807,14.66914 -13.3675,10.88058 -20.8803,13.04018 -32.7848,9.42429 -5.9473,-1.80643 -8.0345,-3.07839 -12.9207,-7.87395 -4.65774,-4.57128 -6.26262,-7.01317 -7.99433,-12.16365 -2.71254,-8.0677 -2.72147,-11.98163 -0.0459,-20.11166 L 994.24148,612.5 1142.4822,464 c 156.4228,-156.69638 151.7552,-151.75175 156.4345,-165.71845 2.5087,-7.48815 2.8809,-25.69697 0.6932,-33.91316 -3.9244,-14.73833 -16.3893,-29.48178 -30.7314,-36.349 -16.063,-7.69119 -33.9701,-7.82232 -50.2827,-0.36821 L 1210.5,231.35057 901,540.53124 C 730.775,710.58061 590.15,850.60936 588.5,851.70624 584.23147,854.54386 576.344,857 571.5,857 563.01406,857 551.86974,851.49477 546.84535,844.82074 545.47037,842.99434 541.04688,835.425 537.01536,828 481.90988,726.51026 430.25477,645.59529 405.80367,622.46389 381.25738,599.24244 342.36423,575.61471 303.41941,560.26508 254.71355,541.06826 199.29491,534.34511 177.83738,545.03002 172.90462,547.48632 141,578.61735 141,580.97421 c 0,0.82332 35.70724,37.27843 79.34942,81.01136 43.64219,43.73294 80.26098,81.08943 81.37511,83.01443 1.11412,1.925 32.68479,95.53373 70.15704,208.01941 l 68.13136,204.51939 127.74354,127.6166 c 98.86638,98.768 129.89106,129.1886 137.24353,134.5712 41.64601,30.4878 86.66201,43.3245 137.60478,39.2393 z M 466.5,315.86348 c -5.82427,-2.0383 -8.02702,-4.12287 -75.21005,-71.17502 -76.79076,-76.64117 -73.71514,-73.04512 -73.71514,-86.18846 0,-9.4803 2.90685,-15.87886 10.34018,-22.76081 8.93469,-8.27194 19.19189,-10.60801 30.99712,-7.05957 5.43868,1.63478 7.43689,3.52338 74.83175,70.72717 38.08412,37.97615 69.9086,70.44841 70.72108,72.16057 3.03305,6.39168 4.38383,13.85998 3.43015,18.96483 -3.66955,19.64211 -23.30958,31.66063 -41.39509,25.33129 z m 317.79984,0.27441 c -11.12692,-3.84469 -17.97204,-10.986 -21.43248,-22.35984 -1.76795,-5.81094 -1.89241,-7.43726 -0.91834,-12 0.61973,-2.90293 1.99801,-7.07805 3.06283,-9.27805 1.28004,-2.64465 25.40938,-27.43603 71.2121,-73.16595 67.10726,-67.00061 69.44609,-69.21554 74.70755,-70.75 7.0197,-2.04723 13.02879,-2.00498 19.98061,0.14048 4.34044,1.33955 6.9649,3.08656 11.75616,7.82568 5.39901,5.34026 6.44807,7.02234 8.41189,13.4878 1.97925,6.51624 2.10966,8.02538 1.1067,12.80704 -0.62532,2.98121 -2.03643,7.27316 -3.1358,9.53766 -1.35521,2.79148 -24.14554,26.21553 -70.77496,72.74299 l -68.7761,68.62571 -6.44417,2.12429 c -7.79362,2.56914 -11.91281,2.62672 -18.75599,0.26219 z M 623.5,283.57813 C 614.90713,279.99872 607.75184,272.17398 605.03858,263.38949 603.04586,256.9378 603,254.58299 603,158.71027 603,49.843275 602.75044,54.148035 609.60966,44.697782 c 6.23971,-8.596729 18.92588,-14.581553 28.21112,-13.308869 11.29335,1.547926 22.14738,9.941163 26.36823,20.390108 L 666.5,57.5 v 101 c 0,114.37464 0.52792,106.80368 -8.11787,116.41987 -9.13752,10.16313 -23.00577,13.60543 -34.88213,8.65826 z"
       style="fill:#db7373" />
    <path
       id="path24"
       d="M 793.76018,1520.4831 C 744.89171,1514.5678 699.88669,1495.5767 660,1464.0392 647.37508,1454.057 392.77116,1200.2676 387.5893,1192.5 384.97569,1188.5822 369.48075,1143.2377 315.99979,983 L 247.74585,778.5 158.42278,689 C 58.835814,589.21579 64.682891,595.91802 64.639029,581.5 c -0.03996,-13.13614 0.226079,-13.50018 36.776721,-50.3244 39.45858,-39.75392 45.80204,-44.37886 68.63697,-50.04242 64.90621,-16.09817 176.15084,16.09306 251.2042,72.69179 31.30571,23.60804 49.1251,43.24608 76.59385,84.41101 20.66689,30.9716 54.47263,87.58892 74.03266,123.98874 2.87415,5.34859 5.7027,10.0195 6.28567,10.37979 0.58858,0.36376 131.64121,-129.84549 294.69542,-292.79893 C 1100.968,251.84308 1168.1738,185.22476 1174,181.30256 c 54.2281,-36.50651 127.3459,-25.20156 165.5618,25.59796 17.3463,23.05819 25.3393,49.04654 24.1518,78.52785 -1.0408,25.84151 -8.6758,47.38569 -24.3254,68.6405 -2.6043,3.53712 -53.3106,55.09542 -112.6807,114.57399 -59.3701,59.47858 -107.7724,108.66241 -107.5607,109.29741 0.2116,0.635 4.0209,2.42715 8.465,3.98256 24.3316,8.51588 42.2204,21.6234 55.266,40.49454 20.5494,29.72571 26.7989,65.16158 17.7416,100.59883 -1.8353,7.18104 -2.1441,9.77471 -1.2716,10.68189 0.6337,0.65896 4.6776,1.9225 8.9865,2.80787 23.7395,4.87795 45.1894,16.54116 60.1612,32.71209 27.5826,29.79174 38.3249,75.08816 27.0457,114.04204 -1.6725,5.77612 -1.965,8.10859 -1.1441,9.12322 0.6066,0.74973 4.0279,1.91405 7.6029,2.58737 47.1993,8.88965 81.3721,43.2041 91.6493,92.02932 2.4749,11.75815 2.4455,35.3296 -0.059,47 -3.467,16.1572 -9.5395,30.8796 -18.3547,44.5 -6.1649,9.5253 -300.0732,304.1376 -307.8827,308.6201 -3.685,2.1152 -5.0211,3.4406 -4.7048,4.667 0.5165,2.002 -61.6826,64.3923 -73.1485,73.3734 -39.47189,30.918 -84.62744,49.6618 -133.378,55.3645 -15.33531,1.7938 -47.3738,1.7723 -62.36182,-0.042 z m 46.8446,-60.5172 c 38.83328,-3.1142 74.11416,-16.6252 106.39522,-40.7447 4.5355,-3.3888 80.4639,-78.5538 192.094,-190.1625 173.1493,-173.1162 184.8192,-184.9991 188.2273,-191.6618 11.3184,-22.1271 7.9782,-47.86753 -8.5524,-65.90782 C 1306.7101,958.32909 1292.5383,952 1275.1299,952 c -15.5933,0 -25.5418,3.87755 -39.5961,15.43306 -9.1425,7.51698 -14.8075,9.80731 -24.125,9.75355 -11.8382,-0.0683 -21.2614,-6.07758 -26.6265,-16.97995 -2.8502,-5.79172 -3.2763,-7.65971 -3.2366,-14.18826 0.073,-11.93504 2.0835,-14.94975 26.36,-39.5184 17.9267,-18.14238 21.2406,-21.98607 24.3533,-28.24642 11.8415,-23.81607 7.4491,-49.79824 -11.5518,-68.33113 -11.0403,-10.76832 -22.6453,-15.90068 -37.7079,-16.67649 -16.1518,-0.83192 -28.385,3.54896 -42.1566,15.09692 -9.396,7.87887 -14.9226,10.17049 -24.4013,10.11814 -17.5778,-0.0971 -31.3974,-14.96317 -30.1908,-32.47713 0.7879,-11.43701 2.6783,-14.19843 25.6121,-37.41232 21.8478,-22.1147 26.1506,-27.85575 29.5148,-39.38069 5.9123,-20.25361 0.4172,-41.3613 -14.7571,-56.68463 -11.2991,-11.4101 -23.4229,-17.1928 -38.0933,-18.16945 -15.3439,-1.02148 -28.199,3.37515 -41.4829,14.18773 -9.9371,8.08837 -15.0388,10.62507 -22.587,11.23097 -23.0721,1.852 -39.50943,-20.24493 -31.43283,-42.2555 2.13979,-5.83141 6.36676,-10.17258 150.43563,-154.5 95.9286,-96.1007 149.1561,-150.12662 150.8471,-153.10985 12.0928,-21.33427 9.9772,-47.7712 -5.3025,-66.26177 -11.8572,-14.34891 -27.6863,-22.00268 -45.5046,-22.00268 -10.0237,0 -17.3359,1.7775 -26.9477,6.55065 -5.3795,2.6714 -40.5144,37.44253 -316.0523,312.77948 -253.21576,253.03111 -310.91587,310.21084 -315,312.15906 -7.21137,3.43998 -20.86365,3.43679 -27.8583,-0.007 -7.38723,-3.63657 -10.64119,-7.58723 -19.14202,-23.24046 C 482.06567,725.95162 431.62642,647.10397 405.84535,622.5 358.90315,577.70106 277.77822,542.37126 214.83258,539.31418 200.87445,538.63627 190.15462,539.87986 181,543.23902 c -4.73891,1.73887 -7.88706,4.38224 -22.75,19.10218 -9.4875,9.39622 -17.25,17.76932 -17.25,18.6069 0,0.83758 35.49433,37.0794 78.87628,80.53739 49.8115,49.89879 79.80107,80.6727 81.38598,83.51451 1.38033,2.475 33.0485,96.1927 70.37372,208.26156 L 439.5,1157.0231 568,1285.3976 c 133.42152,133.2912 134.76327,134.5605 155.5,147.1096 24.30295,14.7073 56.36764,25.0311 85.09138,27.3968 14.52061,1.196 17.79251,1.2023 32.0134,0.062 z M 465,314.89304 c -5.03175,-1.94298 -11.27428,-7.88194 -73.32405,-69.75842 -49.66796,-49.52923 -68.53793,-68.97309 -70.4908,-72.63462 -2.32107,-4.3519 -2.66673,-6.16657 -2.66673,-14 0,-7.83762 0.34787,-9.6617 2.69345,-14.12335 7.26206,-13.81347 23.2763,-19.92595 38.96254,-14.87161 5.03342,1.62184 9.11869,5.50908 74.46508,70.85547 65.72597,65.72597 69.22991,69.41103 70.9708,74.63949 6.93098,20.81587 -6.2367,40.68982 -27.61029,41.67215 -5.85423,0.26905 -8.70689,-0.12134 -13,-1.77911 z m 318,0.44753 c -17.168,-5.96669 -25.37639,-25.31338 -17.93066,-42.26153 1.58407,-3.60569 16.2981,-18.88819 69.22117,-71.89552 C 871.25573,164.15946 903.3,132.80668 905.5,131.51067 c 11.74934,-6.92147 28.9922,-4.34955 38.0491,5.67536 5.8558,6.48167 7.91858,12.02177 7.93595,21.31397 0.0264,14.1445 3.09634,10.51115 -73.19841,86.63322 -64.25887,64.11343 -68.08783,67.74338 -73.57415,69.75 -6.8642,2.51058 -15.29381,2.68814 -21.71249,0.45735 z M 621.49091,282.21628 C 614.77651,278.972 609.75386,273.85479 606.60566,267.05081 604.50745,262.5161 604.5,262.132 604.5,158.5 v -104 l 2.42291,-4.922911 c 3.09109,-6.280528 8.32488,-11.505501 14.61928,-14.594657 4.06271,-1.993888 6.49243,-2.435098 13.45781,-2.443779 7.30274,-0.0091 9.22233,0.368456 13.6282,2.680504 6.78491,3.560476 11.14097,8.064689 14.28879,14.774758 L 665.5,55.5 V 159 262.5 l -2.79009,5.6816 C 657.44618,278.90043 648.96442,284.15825 636,284.739 c -7.75447,0.34737 -9.02705,0.1261 -14.50909,-2.52272 z"
       style="fill:#d25050" />
    <path
       id="path22"
       d="m 793,1519.5073 c -48.54598,-5.8985 -92.84517,-24.7059 -133,-56.4656 -12.34419,-9.7634 -266.00551,-262.5246 -271.50513,-270.5417 -2.78397,-4.0583 -16.34084,-43.6079 -71.98424,-210 L 247.95631,777.5 158.60015,688 C 58.912511,588.15189 65.494646,595.71719 65.505563,581 c 0.0092,-12.4538 0.631044,-13.2964 36.399377,-49.32461 34.06919,-34.31673 40.70589,-39.77713 55.58955,-45.73684 12.69906,-5.08495 23.66377,-6.95865 44.50551,-7.60532 13.92534,-0.43207 22.08555,-0.16204 33,1.09203 73.15741,8.40573 152.24033,43.78591 208.04371,93.07474 21.51129,19.00005 42.95006,47.19943 74.3044,97.73598 17.56901,28.3175 41.5135,69.51117 54.06593,93.01402 3.15776,5.9125 6.26635,10.75 6.90799,10.75 0.64163,0 133.24417,-131.9959 294.67229,-293.32421 C 1100.9371,252.87391 1168.1753,186.22354 1174,182.30169 c 23.8702,-16.07225 45.1112,-22.03147 74.9726,-21.03381 19.24,0.6428 30.4036,3.30811 46.4154,11.08168 25.1404,12.20535 42.1923,28.67518 54.583,52.71978 10.0465,19.4957 13.6294,36.45421 12.7495,60.34599 -0.9777,26.54893 -8.0746,46.57279 -24.3323,68.65354 -2.6043,3.53712 -53.3201,55.10487 -112.7017,114.595 -70.3086,70.43709 -107.7767,108.65877 -107.4221,109.58277 0.2995,0.78039 3.625,2.44783 7.39,3.70542 24.848,8.29961 44.1875,22.53735 57.3572,42.22621 20.0305,29.94595 25.7074,63.87465 16.6792,99.68565 -2.8157,11.1688 -2.684,11.41437 7.0214,13.0884 22.3826,3.86067 47.2031,17.19772 61.6195,33.11062 27.1205,29.93564 36.9643,71.969 26.5096,113.197 -1.5222,6.00267 -1.8976,9.08372 -1.1928,9.7886 0.5658,0.56577 5.8281,2.11313 11.6941,3.43859 25.3268,5.7228 46.2791,18.04418 61.3845,36.0983 12.7682,15.26067 21.7386,33.75819 25.9265,53.46198 2.506,11.79065 2.4776,37.17389 -0.055,48.95259 -3.6571,17.0098 -11.5399,34.4357 -21.6748,47.9146 -3.405,4.5284 -65.2922,67.0819 -153.5637,155.2168 -129.7712,129.5703 -148.4414,147.846 -152.6103,149.3858 -4.6776,1.7278 -5.7104,3.1224 -3.7579,5.0749 1.189,1.189 -60.6168,63.0355 -71.73893,71.7863 -38.97543,30.6655 -84.19739,49.5394 -132.13117,55.1466 -15.31887,1.7919 -49.30569,1.7825 -64.122,-0.018 z m 46.60478,-58.5414 c 16.65611,-1.3357 33.04352,-4.7447 49.92534,-10.3858 21.35906,-7.1372 38.55373,-16.2212 57.46988,-30.3616 4.50956,-3.371 80.9234,-78.9479 191.645,-189.5459 144.335,-144.1737 184.9301,-185.2617 187.7765,-190.056 16.2374,-27.3495 7.9079,-62.26449 -19.1368,-80.21574 -13.2578,-8.80002 -33.1891,-11.83081 -47.9294,-7.2882 -9.6916,2.98676 -13.7467,5.23378 -22.8553,12.66464 -10.6041,8.6509 -14.8868,10.48586 -24.4736,10.48586 -11.9716,0 -20.4417,-5.00658 -26.0873,-15.41985 -3.1036,-5.72446 -3.4391,-7.12378 -3.4391,-14.34331 0,-12.38825 1.3717,-14.47231 25.9978,-39.5 23.4412,-23.82349 25.6048,-26.9617 29.6284,-42.97394 2.5875,-10.297 2.1432,-18.92196 -1.5788,-30.65045 -5.52,-17.39431 -20.8411,-32.61861 -38.7198,-38.47527 -6.0372,-1.97762 -9.2648,-2.38563 -18.3276,-2.31683 -16.324,0.12394 -26.0652,3.93853 -39.5,15.46795 -8.955,7.68497 -13.094,9.37144 -23,9.37144 -6.8835,0 -9.3168,-0.42879 -12.7951,-2.25476 -6.8513,-3.59674 -11.6976,-8.64629 -14.6833,-15.29926 -2.4399,-5.43695 -2.709,-7.04185 -2.3075,-13.76179 0.3137,-5.249 1.1652,-9.00203 2.747,-12.10709 1.4096,-2.76704 10.2628,-12.58714 22.9892,-25.5 13.4348,-13.63154 21.7802,-22.92983 23.7844,-26.5 18.3678,-32.71977 2.2727,-73.29972 -33.9667,-85.63896 -6.7986,-2.31488 -9.9563,-2.81321 -17.768,-2.80405 -15.215,0.0178 -26.0379,4.0885 -38.7123,14.56022 -3.9667,3.27738 -9.7523,7.12179 -12.857,8.54313 -4.9256,2.25505 -6.6183,2.52648 -13.2877,2.1308 -11.9,-0.706 -20.0394,-5.89393 -25.08332,-15.98762 -2.61102,-5.22512 -3.05825,-7.23597 -3.04991,-13.71324 0.0187,-14.5578 -11.72122,-1.766 152.43303,-166.09028 81.0411,-81.125 148.5315,-149.4224 149.9787,-151.772 1.4473,-2.3496 3.9695,-8.26598 5.6049,-13.14751 6.3531,-18.9626 2.5241,-39.23919 -10.3558,-54.83988 -18.8368,-22.81589 -47.4377,-28.81449 -74.1454,-15.55086 -4.0164,1.99464 -67.2565,64.68084 -315.0252,312.26602 C 556.13277,884.06792 586.48834,855 571.5,855 c -6.72797,0 -8.99564,-0.44267 -13.32862,-2.60189 -7.65072,-3.81251 -10.14218,-6.8232 -18.72404,-22.62613 C 482.65022,725.18377 432.73449,647.26288 406.34964,622 365.50763,582.89472 300.37106,551.45094 238.5,540.97292 c -24.21808,-4.1014 -41.1407,-3.74383 -56.5,1.19382 -6.20158,1.99366 -7.31492,2.89695 -24.25,19.67503 -9.7625,9.67199 -17.75,18.2779 -17.75,19.12425 0,0.84635 34.89745,36.41273 77.54989,79.0364 44.75011,44.71993 79.18229,79.92039 81.40945,83.22594 3.32493,4.93484 13.29269,34.02771 71.95653,210.01926 l 68.09697,204.29088 128.74358,128.6168 c 134.55296,134.4204 135.12522,134.9607 156.56189,147.8129 23.32959,13.9871 56.93327,24.6017 85.27307,26.9358 14.4776,1.1924 15.87948,1.1953 30.0134,0.062 z M 464,313.44019 C 459.30177,311.27022 448.7543,301.17661 391.64644,244.19996 316.652,169.37782 319.00158,172.14965 319.00158,158.5 c 0,-17.40636 12.58858,-29.89061 30.05302,-29.80394 13.72281,0.0681 9.83496,-3.21706 84.72936,71.59445 75.80205,75.71815 72.77164,72.12155 72.63811,86.20949 -0.0841,8.87588 -1.8435,13.49358 -7.66912,20.12859 -7.92475,9.02579 -23.39425,12.05782 -34.75295,6.8116 z m 318.59073,0.98655 c -3.96204,-1.45166 -10.03825,-5.57266 -12.36482,-8.38605 -0.70075,-0.84738 -2.49766,-3.79069 -3.99313,-6.54069 -2.36699,-4.35264 -2.71397,-6.10051 -2.67996,-13.5 0.0315,-6.84933 0.48601,-9.37388 2.34053,-13 1.5978,-3.12415 22.83299,-25.0717 69.45406,-71.78396 75.26755,-75.4148 71.92764,-72.58446 85.65259,-72.58446 12.43915,0 21.23267,5.37433 27.23669,16.64622 3.29698,6.18974 3.24877,20.29974 -0.0913,26.7222 -1.59679,3.07039 -23.51526,25.71635 -68.99283,71.28275 -74.80226,74.94839 -72.24731,72.77911 -85.56226,72.64679 -3.89966,-0.0388 -8.84945,-0.71501 -10.99955,-1.5028 z m -161.70948,-33.4245 c -6.01734,-3.1074 -9.65932,-6.80651 -13.17905,-13.38577 L 605.5,263.5 V 158.4611 53.422195 l 3.5,-5.818022 c 8.05945,-13.397161 24.49742,-18.412329 38.5,-11.746216 7.1293,3.393996 10.77944,6.860665 14.35594,13.634344 L 664.5,54.5 V 159 263.5 l -2.2022,4.11647 c -3.58498,6.70124 -7.01212,10.08467 -13.49759,13.3255 -5.35331,2.67508 -7.13278,3.05201 -14.20993,3.00993 -6.91494,-0.0411 -8.90656,-0.46963 -13.70903,-2.94966 z"
       style="fill:#cb3232" />
  </g>
</svg>
