<?xml version="1.0" encoding="UTF-8" standalone="no"?>
<!-- Created with Inkscape (http://www.inkscape.org/) -->

<svg
   xmlns:dc="http://purl.org/dc/elements/1.1/"
   xmlns:cc="http://creativecommons.org/ns#"
   xmlns:rdf="http://www.w3.org/1999/02/22-rdf-syntax-ns#"
   xmlns:svg="http://www.w3.org/2000/svg"
   xmlns="http://www.w3.org/2000/svg"
   xmlns:xlink="http://www.w3.org/1999/xlink"
   xmlns:sodipodi="http://sodipodi.sourceforge.net/DTD/sodipodi-0.dtd"
   xmlns:inkscape="http://www.inkscape.org/namespaces/inkscape"
   version="1.1"
   id="svg4057"
   width="126.4"
   height="107.2"
   viewBox="0 0 126.4 107.2"
   sodipodi:docname="circle_red.svg"
   inkscape:version="0.92.4 (5da689c313, 2019-01-14)">
  <metadata
     id="metadata4063">
    <rdf:RDF>
      <cc:Work
         rdf:about="">
        <dc:format>image/svg+xml</dc:format>
        <dc:type
           rdf:resource="http://purl.org/dc/dcmitype/StillImage" />
        <dc:title></dc:title>
      </cc:Work>
    </rdf:RDF>
  </metadata>
  <defs
     id="defs4061" />
  <sodipodi:namedview
     pagecolor="#ffffff"
     bordercolor="#666666"
     borderopacity="1"
     objecttolerance="10"
     gridtolerance="10"
     guidetolerance="10"
     inkscape:pageopacity="0"
     inkscape:pageshadow="2"
     inkscape:window-width="640"
     inkscape:window-height="480"
     id="namedview4059"
     showgrid="false"
     inkscape:zoom="2.2014926"
     inkscape:cx="63.200001"
     inkscape:cy="53.599998"
     inkscape:window-x="0"
     inkscape:window-y="0"
     inkscape:window-maximized="0"
     inkscape:current-layer="svg4057" />
  <g
     id="g4067">
    <path
       style="fill:#fdfdfd;stroke-width:0.80000001"
       d="M 0,53.6 V 0 h 63.2 63.2 v 53.6 53.6 H 63.2 0 Z"
       id="path4083"
       inkscape:connector-curvature="0" />
    <path
       style="fill:#fdd8e5;stroke-width:0.80000001"
       d="M 52.8,98.431096 C 46.7557,97.323504 40.713115,95.369352 39.256563,94.051192 38.496162,93.363032 37.499826,92.8 37.042483,92.8 34.771007,92.8 20,79.357652 20,77.290495 20,77.06787 18.666538,74.616434 17.036751,71.842861 15.406964,69.069287 13.841634,65.18 13.558242,63.2 c -0.283394,-1.98 -1.003096,-5.855498 -1.599336,-8.612219 -0.892696,-4.127378 -0.903343,-5.822132 -0.0603,-9.6 C 12.461671,42.464502 13.127562,38.78 13.378354,36.8 13.946436,32.315019 20.249365,20.951106 24.957301,15.923651 28.673708,11.955019 38.129815,4.8 39.658372,4.8 40.174403,4.8 42.352374,3.9996718 44.498306,3.0214927 48.005866,1.4226435 49.652601,1.2458805 60.8,1.2716439 c 12.123888,0.02802 12.529869,0.084949 18.232306,2.5566085 16.215158,7.0282846 27.780194,21.9456566 29.719954,38.3348096 0.63825,5.392652 0.62819,9.460287 -0.0376,15.2 C 107.93032,64.124572 107.31833,66.133134 104.25494,72 99.063976,81.941456 91.70912,89.058968 80.562424,94.927928 74.702805,98.01312 60.381066,99.820288 52.8,98.431096 Z M 68.050701,91.684464 C 75.682214,90.602752 76.754809,90.22168 82.8,86.444256 89.878192,82.021352 95.889512,75.407115 99.028176,68.588444 103.2215,59.47855 103.2,59.574633 103.2,49.941865 103.2,41.650699 102.94924,39.896686 101.10146,35.262769 98.721912,29.29531 94.44076,22.494093 90.72508,18.778412 87.625096,15.678431 78.44961,9.6098144 76.806674,9.5728552 76.143003,9.5579248 74.16,8.85014 72.4,8 69.874942,6.7803106 67.428276,6.4491434 60.8,6.4298881 53.345123,6.4082316 51.760885,6.6659356 46.719714,8.7202928 43.595556,9.993436 39.851484,11.649408 38.399554,12.40023 35.500794,13.899238 24.8,24.37647 24.8,25.715662 c 0,0.46054 -0.669193,1.792919 -1.487095,2.960842 -6.64955,9.495218 -6.646501,33.06625 0.0054,41.631383 C 24.13323,71.357225 24.8,72.694954 24.8,73.280619 c 0,1.927826 10.97441,11.976221 16.012814,14.661661 4.215117,2.24664 11.297189,4.037376 18.787186,4.750448 0.44,0.04192 4.242815,-0.411832 8.450701,-1.008264 z M 54.170222,64.856385 C 47.605002,61.792178 44.808923,57.235326 44.808923,49.6 c 0,-6.439959 1.302478,-9.33467 5.799624,-12.889459 l 4.125485,-3.261009 6.622725,0.275234 L 67.979481,34 l 3.702131,3.702398 c 8.6489,8.649523 6.49876,22.051528 -4.304422,26.829831 -4.948493,2.188744 -8.998989,2.288161 -13.206968,0.324156 z"
       id="path4081"
       inkscape:connector-curvature="0" />
    <path
       style="fill:#fbb3c9;stroke-width:0.80000001"
       d="M 54,97.817288 C 49.61079,97.190032 40.585621,94.452856 39.283698,93.354096 38.577664,92.75824 36.38,91.33692 34.4,90.195616 32.42,89.054304 28.74679,86.023392 26.237312,83.460256 22.187391,79.323731 20.343221,76.537235 15.740614,67.6 15.060824,66.28 13.89033,61.561808 13.139515,57.11513 11.866907,49.578139 11.863362,48.636316 13.087199,43.216997 13.809239,40.019703 14.4,36.531122 14.4,35.464593 14.4,32.739935 21.035088,21.547043 25.631612,16.517714 29.203947,12.60901 38.379075,5.6 39.923421,5.6 40.293675,5.6 42.172374,4.9064862 44.098306,4.0588582 49.443754,1.7062562 59.243826,0.63648102 66.729042,1.5884885 80.257768,3.3091392 91.808008,10.212607 99.541208,21.2 c 7.702122,10.943232 9.545462,18.86132 8.287732,35.6 -0.50708,6.748638 -0.9432,8.327381 -3.8931,14.093238 -3.9658,7.751536 -10.31088,15.129266 -16.1116,18.73373 C 85.500904,91.070648 82.7,92.823224 81.6,93.521584 76.34531,96.85764 62.434796,99.022696 54,97.817288 Z M 68.936011,92.434936 C 77.089157,91.098264 80.898808,89.33052 88.116792,83.534704 93.11668,79.519956 99.900128,70.731023 101.03291,66.8 c 0.25359,-0.88 1.05659,-3.22 1.78444,-5.2 1.05065,-2.858091 1.25506,-5.660858 0.99186,-13.6 C 103.51778,39.209117 103.21433,37.43029 101.2995,33.28821 96.57116,23.060066 88.92192,14.639924 80.70524,10.618423 71.860835,6.2896995 69.145383,5.6 60.946942,5.6 52.725689,5.6 47.546586,6.9418896 39.062324,11.270237 33.3358,14.191691 24.672976,23.664282 21.202067,30.8 c -3.041292,6.252483 -3.120564,6.639714 -3.439196,16.8 -0.286031,9.120738 -0.111229,11.035875 1.42108,15.569466 5.151398,15.241256 17.883034,26.726878 32.305816,29.144118 8.606763,1.442488 9.356097,1.447696 17.446244,0.121352 z M 54.630297,64.09507 C 47.664198,61.326934 44.792862,55.433534 45.874211,46.123256 46.295287,42.497846 46.831723,41.541184 50.317078,38.2 53.53504,35.115147 54.856829,34.378955 57.340522,34.288178 64.681226,34.01988 66.747556,34.51824 70.296104,37.412819 74.453074,40.803694 76,44.108918 76,49.6 c 0,7.011064 -3.028623,11.754639 -9.191666,14.396427 -4.424607,1.896608 -7.588903,1.922239 -12.178037,0.09864 z"
       id="path4079"
       inkscape:connector-curvature="0" />
    <path
       style="fill:#f993b0;stroke-width:0.80000001"
       d="M 48.072676,95.911552 C 36.34562,92.76304 25.073303,83.726088 18.614017,72.294718 15.97831,67.630159 15.135448,65.035986 13.993409,58.073362 12.678746,50.058313 12.675115,49.085796 13.931689,41.543206 16.756487,24.587334 28.106742,10.897048 44.762334,4.3563436 c 5.415487,-2.1266792 6.846271,-2.3421117 15.6,-2.3488856 8.68241,-0.00672 10.272014,0.2251335 16.037666,2.3391798 7.375624,2.7043616 15.664456,8.3972772 20.31668,13.9538502 1.772568,2.11713 4.73281,6.695619 6.57831,10.17442 2.92709,5.517581 3.44311,7.273642 4.04186,13.754922 0.3991,4.320126 0.37737,10.681982 -0.0519,15.2 -0.67923,7.148462 -1.04419,8.314252 -4.56131,14.57017 -2.10266,3.74 -5.465652,8.543944 -7.473324,10.675432 C 91.755776,86.385472 85.440088,91.2 84.067784,91.2 c -0.358608,0 -1.51056,0.673696 -2.559896,1.497096 -1.049336,0.823408 -4.86835,2.263408 -8.486691,3.2 -8.28503,2.144552 -16.995901,2.1496 -24.948521,0.01448 z M 69.6,92.88648 C 78.49071,91.199216 84.801408,87.87272 91.473392,81.356576 96.553984,76.39466 99.225624,72.323752 102.1889,65.028865 104.18794,60.107683 104.39445,58.664845 104.39709,49.6 104.39949,40.40739 104.21397,39.147862 102.09593,34 97.982432,24.00224 90.741656,15.487962 82.154272,10.551011 80.47912,9.5879552 78.67379,8.8 78.142425,8.8 77.611059,8.8 75.741637,7.9965074 73.988153,7.014461 71.188282,5.4463811 69.630826,5.227161 61.2,5.214461 51.248698,5.1994708 48.337986,5.9232814 38.509436,10.856954 35.120436,12.558142 24.91103,22.683925 22.838028,26.4 17.831446,35.374826 17.35819,37.35066 17.281103,49.6 l -0.073,11.6 3.577828,7.2 c 2.714248,5.462136 4.933875,8.551782 9.195948,12.800456 7.090365,7.068072 12.363879,9.916696 21.60301,11.669408 9.14372,1.734624 8.963329,1.734456 18.015111,0.01662 z M 54,63.230661 c -5.811918,-2.645004 -7.6,-5.933138 -7.6,-13.975763 0,-5.867071 0.09085,-6.150966 3,-9.37489 C 52.871734,36.032631 56.244908,34.4 60.722226,34.4 c 4.272336,0 6.594652,0.987004 10.389928,4.415808 7.764984,7.015197 5.122755,21.445635 -4.528874,24.734276 C 61.87535,65.154237 58.011174,65.056146 54,63.230661 Z"
       id="path4077"
       inkscape:connector-curvature="0" />
    <path
       style="fill:#f56b8f;stroke-width:0.80000001"
       d="m 47.919337,95.30812 c -2.904365,-0.719464 -5.784365,-1.696128 -6.4,-2.17036 C 40.903702,92.66352 38.6,91.2694 36.4,90.039704 32.502642,87.861272 21.6,77.928348 21.6,76.556067 21.6,76.178303 20.300597,73.652129 18.712437,70.942346 14.286154,63.390043 12.880143,51.486537 14.91587,38.8 17.05805,25.450044 29.568574,11.149396 44.4,5.0969994 49.627671,2.9636954 50.718062,2.8140976 60.8,2.8469755 70.934076,2.8800235 71.945294,3.0282806 77.2,5.2514221 84.288896,8.2505664 91.776744,13.353447 95.569608,17.77009 97.189624,19.65654 100.14998,24.08 102.14819,27.6 c 4.36071,7.681755 5.46803,14.3166 4.64213,27.814894 -0.50926,8.3232 -0.65899,8.864946 -4.42212,16 C 95.992384,83.503704 85.553088,92.052256 73.2,95.3002 66.262909,97.124136 55.264201,97.127584 47.919337,95.3082 Z M 68.846354,93.590864 C 78.708999,91.646912 84.481904,88.76012 90.975032,82.525208 96.960392,76.777866 100.2085,72.007993 102.76875,65.206025 104.55873,60.450515 104.8,58.587366 104.8,49.520594 104.8,40.193527 104.59705,38.725389 102.62905,33.815841 98.443704,23.374743 89.464128,13.218754 81.2,9.5793872 69.209384,4.298941 69.800886,4.448 60.837442,4.448 c -7.591209,0 -9.286459,0.2710718 -14.5162,2.3211532 C 34.074725,11.569842 26.199365,18.561753 20.650822,29.559893 L 17.2,36.4 v 13.2 13.2 l 3.190721,6.382621 C 24.50499,77.412677 33.303378,86.419128 40.92257,90.2 c 2.881728,1.43 6.103038,2.615256 7.158468,2.633896 1.055429,0.01864 3.898962,0.528024 6.318962,1.13196 5.799754,1.447392 5.10956,1.465312 14.446354,-0.374992 z M 55.70366,63.303618 C 48.529998,60.7769 45.434767,54.825174 46.746237,46.079663 47.309664,42.322466 48.8131,40.141442 52.936784,37.099084 55.039517,35.547737 56.487167,35.2 60.842792,35.2 c 5.086575,0 5.500226,0.148127 8.988758,3.218856 4.251689,3.742487 5.708625,7.359431 5.180096,12.859946 -0.55282,5.753304 -3.713424,9.870172 -9.134766,11.898556 -5.089629,1.904274 -5.124013,1.9047 -10.17322,0.12626 z"
       id="path4075"
       inkscape:connector-curvature="0" />
    <path
       style="fill:#ed5178;stroke-width:0.80000001"
       d="m 46.18705,94.066384 c -2.097124,-0.564088 -4.077124,-1.317152 -4.4,-1.673464 -0.322878,-0.35632 0.07442,-0.409712 0.882886,-0.118656 0.808465,0.291056 2.968465,0.756576 4.8,1.03448 3.85265,0.584584 6.762155,1.861736 4.130064,1.812936 -0.88,-0.01632 -3.315828,-0.4912 -5.41295,-1.055296 z M 68.8,94.551496 c 0.66,-0.404296 2.836276,-0.946792 4.83617,-1.205536 1.999893,-0.258744 4.339893,-0.672712 5.2,-0.919944 0.860106,-0.247224 0.4833,0.06032 -0.837348,0.683408 C 75.246567,94.407976 66.897717,95.7168 68.8,94.551496 Z M 30.4,85.2 c -1.033396,-1.1 -1.518902,-2 -1.078902,-2 0.44,0 1.645506,0.9 2.678902,2 1.033396,1.1 1.518902,2 1.078902,2 -0.44,0 -1.645506,-0.9 -2.678902,-2 z m 59.2,0 c 1.0334,-1.1 2.012952,-2 2.1768,-2 0.66464,0 -2.632208,3.951608 -3.316248,3.974864 C 88.053848,87.188704 88.5666,86.3 89.6,85.2 Z m 5.497752,-5.808951 C 96.124336,77.472858 99.2,74.756567 99.2,75.768123 c 0,0.448857 -0.746128,1.764652 -1.658064,2.92399 -1.89364,2.407375 -3.623208,2.901959 -2.444184,0.698936 z M 23.422143,78.2 c -0.425572,-0.55 -1.02964,-1.71153 -1.342373,-2.581179 -0.500962,-1.39308 -0.325398,-1.352699 1.475813,0.339451 C 24.680012,77.014619 25.6,78.17615 25.6,78.539451 25.6,79.535161 24.298254,79.332264 23.422143,78.2 Z M 17.750885,67.561047 C 16.787898,65.57893 16.041761,63.156828 16.092801,62.178599 16.177718,60.5511 16.218933,60.535927 16.577936,62 c 0.215784,0.88 1.098984,3.16504 1.962666,5.077866 2.098503,4.647624 1.431728,5.055584 -0.789717,0.483181 z m 85.848855,-2.319955 c 1.53395,-3.872124 2.00026,-4.399697 2.00026,-2.263053 0,0.904589 -0.73162,2.494589 -1.62583,3.533334 L 102.34834,68.4 Z M 55.52606,62.712195 c -1.800667,-0.638818 -4.320667,-2.253845 -5.6,-3.588946 -2.130152,-2.223009 -2.349971,-2.999498 -2.609962,-9.219408 L 47.032196,43.11189 50.406882,39.901629 C 54.237707,36.257452 56.50277,35.2 60.477774,35.2 c 4.083959,0 7.543588,1.735799 10.922226,5.480008 2.846618,3.154624 3,3.602738 3,8.764694 0,4.795268 -0.286676,5.829913 -2.418554,8.728816 -1.720956,2.340137 -3.492676,3.654712 -6.142511,4.557602 -4.446113,1.514943 -5.997317,1.512097 -10.312875,-0.01893 z M 14.9,55.9 c -0.66743,-3.337149 -0.496883,-11.01173 0.3,-13.5 0.408836,-1.276591 0.669356,1.255339 0.720256,7 0.04386,4.95 -0.05526,9 -0.220256,9 -0.165,0 -0.525,-1.125 -0.8,-2.5 z m 88.86484,-21.224177 c -1.08213,-2.919728 -1.12561,-3.473187 -0.21338,-2.716102 1.11401,0.924543 2.5172,5.438293 1.88662,6.068865 -0.17279,0.172796 -0.92575,-1.335947 -1.67324,-3.352763 z M 16,36.286237 c 0,-0.869236 0.535054,-2.279236 1.189009,-3.133333 C 18.269456,31.741788 18.295134,31.855654 17.470243,34.4 16.344564,37.872122 16,38.314177 16,36.286237 Z"
       id="path4073"
       inkscape:connector-curvature="0" />
    <path
       style="fill:#da2350;stroke-width:0.80000001"
       d="m 55.816529,62.241755 c -1.717011,-0.456309 -4.009269,-1.9612 -5.4,-3.545154 C 48.145862,56.110453 48,55.546291 48,49.349956 48,42.223744 47.9265,42.36665 53.940398,37.8 c 3.639092,-2.763343 9.637384,-2.51147 13.910725,0.584122 3.899328,2.824659 5.401914,5.018162 6.039021,8.815878 1.140259,6.796946 -2.385458,12.828486 -8.635345,14.772717 -4.415889,1.373705 -5.197739,1.395993 -9.43827,0.269038 z"
       id="path4071"
       inkscape:connector-curvature="0" />
    <path
       style="fill:#ce0b3b;stroke-width:0.80000001"
       d="m 54.8,60.524977 c -4.221759,-1.956552 -6,-5.33546 -6,-11.400847 0,-4.603846 0.263838,-5.585174 1.91239,-7.113 6.16382,-5.712436 11.14458,-6.589633 16.282627,-2.867651 C 71.769859,42.602357 72.8,44.48337 72.8,49.743241 c 0,4.201619 -0.255872,4.864337 -3.043852,7.883698 -2.784265,3.015337 -3.449466,3.326907 -7.8,3.653387 C 58.879517,61.511207 56.352499,61.244474 54.8,60.524977 Z"
       id="path4069"
       inkscape:connector-curvature="0" />
  </g>
</svg>
