<?xml version="1.0" encoding="UTF-8" standalone="no"?>
<!-- Created with Inkscape (http://www.inkscape.org/) -->

<svg
   xmlns:dc="http://purl.org/dc/elements/1.1/"
   xmlns:cc="http://creativecommons.org/ns#"
   xmlns:rdf="http://www.w3.org/1999/02/22-rdf-syntax-ns#"
   xmlns:svg="http://www.w3.org/2000/svg"
   xmlns="http://www.w3.org/2000/svg"
   xmlns:xlink="http://www.w3.org/1999/xlink"
   xmlns:sodipodi="http://sodipodi.sourceforge.net/DTD/sodipodi-0.dtd"
   xmlns:inkscape="http://www.inkscape.org/namespaces/inkscape"
   version="1.1"
   id="svg4085"
   width="363"
   height="347"
   viewBox="0 0 363 347"
   sodipodi:docname="hand.svg"
   inkscape:version="0.92.4 (5da689c313, 2019-01-14)">
  <metadata
     id="metadata4091">
    <rdf:RDF>
      <cc:Work
         rdf:about="">
        <dc:format>image/svg+xml</dc:format>
        <dc:type
           rdf:resource="http://purl.org/dc/dcmitype/StillImage" />
        <dc:title></dc:title>
      </cc:Work>
    </rdf:RDF>
  </metadata>
  <defs
     id="defs4089" />
  <sodipodi:namedview
     pagecolor="#ffffff"
     bordercolor="#666666"
     borderopacity="1"
     objecttolerance="10"
     gridtolerance="10"
     guidetolerance="10"
     inkscape:pageopacity="0"
     inkscape:pageshadow="2"
     inkscape:window-width="640"
     inkscape:window-height="480"
     id="namedview4087"
     showgrid="false"
     inkscape:zoom="0.68011527"
     inkscape:cx="181.5"
     inkscape:cy="173.5"
     inkscape:window-x="0"
     inkscape:window-y="0"
     inkscape:window-maximized="0"
     inkscape:current-layer="svg4085" />
  <g
     id="g4095">
    <path
       style="fill:#fefefe"
       d="M 0,173.5 V 0 H 181.5 363 V 173.5 347 H 181.5 0 Z"
       id="path4111"
       inkscape:connector-curvature="0" />
    <path
       style="fill:#f0cfce"
       d="m 179.91658,346.58325 c -0.22921,-0.22921 -4.67044,-0.89166 -9.86939,-1.47211 -7.94982,-0.88757 -16.61447,-3.46551 -54.49992,-16.21503 C 90.771273,320.5583 69.9375,313.5226 69.25,313.26123 68.302137,312.90089 68,315.18064 68,322.69301 68,329.06511 67.571831,333.02817 66.8,333.8 65.917919,334.68208 57.329286,335 34.381787,335 17.211771,335 2.4517706,334.72686 1.5817875,334.39301 0.16213538,333.84824 0,327.20615 0,269.59301 0,220.99845 0.2915915,205.10841 1.2,204.2 2.9633679,202.43663 65.548271,202.48441 66.690983,204.25 67.135942,204.9375 67.725,208.425 68,212 l 0.5,6.5 29,0.56302 c 25.46806,0.49444 29.97433,0.82631 37,2.72485 11.81713,3.19333 28.54451,11.96498 39.50444,20.71568 L 183.39348,250 h 24.65404 c 26.06551,0 28.91483,0.39059 34.81133,4.77202 3.50816,2.60676 7.08154,9.12087 7.11919,12.97798 0.0121,1.2375 0.56574,2.25 1.23037,2.25 0.66462,0 15.48431,-4.7391 32.93264,-10.53134 20.6986,-6.87121 33.93698,-10.73796 38.09103,-11.12587 11.25888,-1.05137 21.39273,2.3601 32.37092,10.8974 6.30567,4.90367 8.87984,9.01379 7.26491,11.5997 -0.57991,0.9286 -7.42493,4.94071 -15.21115,8.91581 -7.78622,3.9751 -28.33176,14.70703 -45.65676,23.84873 -42.70486,22.53363 -68.91447,35.40399 -78.5,38.54782 -4.4,1.4431 -11.84835,3.1242 -16.5519,3.73578 -8.32107,1.08196 -25.19416,1.53258 -26.03152,0.69522 z m 29.44863,-7.54878 c 14.1605,-3.62164 28.55784,-10.24477 73.48307,-33.80401 24.55845,-12.87869 50.35363,-26.28449 57.32263,-29.79066 6.969,-3.50616 12.90916,-6.76034 13.20035,-7.23149 0.72707,-1.17643 -6.67631,-6.71901 -13.35814,-10.00066 -4.71716,-2.31673 -6.74032,-2.70097 -14.01312,-2.66139 -8.13295,0.0443 -10.01655,0.55282 -43.61934,11.77688 -23.48651,7.845 -35.74228,12.41944 -37,13.81015 -1.03436,1.14374 -3.68066,3.04414 -5.88066,4.22312 -3.92804,2.10503 -4.85252,2.14359 -51.39036,2.14359 -43.13799,0 -47.48473,-0.14951 -48.44201,-1.66618 -0.76346,-1.20958 -0.69144,-2.1002 0.2628,-3.25 1.16249,-1.40071 6.53189,-1.59035 46.44201,-1.64026 32.22864,-0.0403 46.11808,-0.3976 48.59293,-1.25 4.91082,-1.69141 8.35468,-7.06413 7.70544,-12.02118 -0.27573,-2.10518 -1.32695,-4.75479 -2.33606,-5.88801 C 236.4403,257.41094 233.5073,257 206.18771,257 h -25.87653 l -5.42941,-4.75 c -9.26371,-8.10449 -15.31367,-12.10142 -26.15949,-17.28235 -16.38112,-7.82509 -23.05005,-8.9201 -54.483754,-8.94601 L 67.977051,226 68.238526,265.75 68.5,305.5 104,317.65991 c 41.75612,14.30283 60.079,20.0041 70.15537,21.82925 11.31419,2.04935 26.1692,1.85752 35.20984,-0.45469 z M 60.5,269.5 v -59 H 33 5.5 l -0.2595456,58 c -0.1427501,31.9 -0.04159,58.56975 0.2248002,59.26612 0.377886,0.98782 6.4794674,1.20762 27.7595454,1 L 60.5,328.5 Z m 129.2977,-68.4308 c -15.72511,-5.02793 -28.16496,-17.59101 -32.92007,-33.24617 -2.79093,-9.18854 -2.3186,-24.44676 1.02303,-33.0478 4.81276,-12.3876 16.48697,-24.06181 28.87457,-28.87457 8.60104,-3.34163 23.85926,-3.81396 33.0478,-1.02303 13.5261,4.10843 24.28409,13.49009 30.96108,27.00004 l 3.71589,7.5186 V 153 166.60373 l -3.71589,7.5186 c -6.59094,13.33585 -17.33762,22.80619 -30.48951,26.8684 -8.48372,2.62035 -22.43476,2.65625 -30.4969,0.0785 z m 33.32568,-8.73367 c 16.17879,-7.60148 25.03267,-21.51418 25.03267,-39.33553 0,-17.8112 -8.82017,-31.68019 -25.03267,-39.36179 C 216.89359,110.68649 215.81662,110.5 205,110.5 c -10.86984,0 -11.87118,0.17582 -18.27383,3.20861 -8.89879,4.21516 -16.8024,12.11877 -21.01756,21.01756 C 162.67582,141.12882 162.5,142.13016 162.5,153 c 0,10.86984 0.17582,11.87118 3.20861,18.27383 3.67123,7.75048 11.62408,16.31591 18.36676,19.78151 8.00187,4.11279 11.9468,4.93181 22.42463,4.65567 8.79441,-0.23177 10.79851,-0.63872 16.62338,-3.37548 z m -27.24833,-25.77447 c -9.18999,-6.24476 -9.18999,-20.87736 0,-27.12212 7.32175,-4.97526 18.39965,-2.58464 23.07454,4.9795 4.47319,7.23777 1.8997,18.03945 -5.36803,22.53115 -4.83727,2.9896 -12.9987,2.81052 -17.70651,-0.38853 z M 279.7977,97.069197 C 258.52327,90.266934 245,71.586017 245,49 c 0,-18.633814 8.87408,-34.303326 24.73082,-43.6687296 12.07004,-7.1288837 38.6224,-6.9904403 51.03836,0.2661129 7.7582,4.5343077 15.43905,13.0082207 19.80578,21.8507537 L 344.5,35.396274 V 49 62.603726 l -3.71589,7.5186 c -6.59094,13.335851 -17.33762,22.806196 -30.48951,26.868401 -8.48372,2.620354 -22.43476,2.65625 -30.4969,0.07847 z m 33.32568,-8.73367 C 329.30217,80.734049 338.15605,66.821352 338.15605,49 c 0,-17.811196 -8.82017,-31.680186 -25.03267,-39.361793 C 306.89359,6.6864866 305.81662,6.5 295,6.5 284.13016,6.5 283.12882,6.6758217 276.72617,9.7086117 267.82738,13.923772 259.92377,21.827376 255.70861,30.726171 252.67582,37.128816 252.5,38.130163 252.5,49 c 0,10.869837 0.17582,11.871184 3.20861,18.273829 3.67123,7.750477 11.62408,16.315916 18.36676,19.781507 8.00187,4.11279 11.9468,4.931815 22.42463,4.655677 8.79441,-0.231772 10.79851,-0.638719 16.62338,-3.375486 z M 285.87505,62.561065 C 281.5197,59.601526 279,54.631409 279,49 279,39.506936 285.45167,33 294.8641,33 304.70593,33 311,39.241063 311,49 c 0,9.758937 -6.29407,16 -16.1359,16 -4.07601,0 -6.27976,-0.597928 -8.98905,-2.438935 z"
       id="path4109"
       inkscape:connector-curvature="0" />
    <path
       style="fill:#e3a09e"
       d="M 174.41748,345.50498 C 163.08227,343.72987 153.80664,340.9207 108.43718,325.52249 86.523623,318.08512 68.235623,312 67.797176,312 c -0.438447,0 -0.804067,4.3875 -0.812489,9.75 -0.0084,5.3625 -0.441582,10.425 -0.962577,11.25 -0.801458,1.26911 -5.645894,1.54486 -31.472992,1.79144 -20.495478,0.19568 -31.1891466,-0.0636 -32.5447567,-0.78911 -1.99735372,-1.06895 -2.01626721,-1.76991 -1.76169562,-65.29144 L 0.5,204.5 32.380398,204.23578 c 22.086471,-0.18306 32.287717,0.0738 33.206274,0.83615 0.793409,0.65847 1.443835,3.77655 1.619602,7.76423 L 67.5,219.5 l 30,0.56494 c 28.90466,0.54432 30.32087,0.66322 38.78832,3.25673 14.33809,4.39163 27.7341,11.86117 41.0136,22.86894 L 183.10383,251 h 25.26877 25.26877 l 5.42932,2.75 c 4.2509,2.15312 5.91766,3.71844 7.67931,7.21189 1.2375,2.45404 2.25,5.71654 2.25,7.25 0,1.96282 0.5057,2.78811 1.70841,2.78811 0.93962,0 16.12712,-4.81546 33.75,-10.70101 31.04458,-10.36804 32.32163,-10.70254 41.04159,-10.75 6.49265,-0.0353 10.39297,0.47766 14,1.8414 8.7991,3.32675 24.63209,15.96883 23.10136,18.44561 -0.34291,0.55484 -10.856,6.28185 -23.36242,12.72669 -12.50642,6.44484 -34.01383,17.68325 -47.79426,24.97423 -54.22655,28.69033 -69.0322,35.25257 -85.59797,37.93919 -10.94954,1.77579 -20.21961,1.78431 -31.42923,0.0289 z M 217.5,337.6359 c 13.99328,-4.726 25.67676,-10.38738 75,-36.3422 22,-11.57681 45.0625,-23.58262 51.25,-26.67958 6.1875,-3.09695 11.25,-6.06249 11.25,-6.59008 0,-1.47849 -10.00593,-8.69005 -15.54558,-11.20414 -3.90137,-1.77059 -6.76108,-2.24626 -13.45442,-2.23794 -8.17566,0.0102 -9.84088,0.45844 -43.6406,11.74824 -24.8903,8.31387 -35.91746,12.45765 -37.80387,14.20592 C 237.88387,286.71921 239.96259,286.5 188,286.5 c -46.83333,0 -47.5,-0.0281 -47.5,-2 0,-1.96457 0.83333,-2.00886 47.04563,-2.5 52.17139,-0.55448 50.22354,-0.29341 54.49837,-7.30433 3.76779,-6.17934 1.42956,-13.31983 -5.45269,-16.65147 C 232.67578,256.14873 230.50896,256 206.80883,256 H 181.2491 l -8.62146,-6.95351 C 157.43643,236.79425 145.23787,230.61843 129,226.95892 c -7.20671,-1.62417 -12.57178,-1.91893 -35.261217,-1.93728 L 66.977565,225 67.238783,265.62499 67.5,306.24998 l 35,11.93246 c 65.35884,22.28261 71.74053,23.91878 91.5,23.45924 11.36574,-0.26433 13.49815,-0.62782 23.5,-4.00578 z M 61.5,269 V 209.5 L 33.25,209.23443 5,208.96885 V 269 329.03115 L 33.25,328.76557 61.5,328.5 Z M 198.40211,202.00254 C 187.25129,200.36852 180.36713,197.086 172.1646,189.49191 160.70201,178.87957 156,168.26469 156,153 c 0,-15.26469 4.70201,-25.87957 16.1646,-36.49191 9.80229,-9.07519 19.66616,-12.84162 33.3342,-12.72837 30.14531,0.24978 52.63886,26.44363 48.49294,56.47028 -1.86366,13.49748 -10.92247,27.27395 -22.99174,34.96539 -8.33866,5.31401 -22.51227,8.26508 -32.59789,6.78715 z m 20.79651,-7.06945 c 9.77644,-3.29344 18.8542,-10.68475 24.48118,-19.93309 7.05755,-11.5996 7.06073,-32.36947 0.007,-44 -3.20749,-5.28847 -10.32386,-12.56181 -15.53492,-15.87758 -7.30797,-4.65004 -14.93066,-6.41438 -25.68131,-5.94418 -8.19114,0.35825 -10.08574,0.82178 -16.68016,4.08092 -9.22881,4.56112 -16.6582,12.12918 -21.08869,21.48231 -3.02454,6.38507 -3.20145,7.394 -3.20145,18.25853 0,10.85224 0.1794,11.87871 3.18498,18.22333 5.41704,11.4351 14.79695,19.82667 26.80196,23.9779 7.1912,2.48666 19.89919,2.3637 27.71168,-0.26814 z M 198.5,167.04051 c -1.1,-0.45799 -3.35,-2.25901 -5,-4.00227 -2.73876,-2.89356 -3,-3.77195 -3,-10.08724 0,-6.64956 0.14407,-7.06173 3.71718,-10.63485 3.37852,-3.37851 4.30504,-3.75462 10.16934,-4.12803 6.33424,-0.40333 6.52769,-0.34027 10.58503,3.45052 7.28662,6.80792 7.33446,15.86995 0.11938,22.61136 -3.62117,3.38344 -4.53046,3.7438 -9.30221,3.68661 -2.90879,-0.0349 -6.18872,-0.4381 -7.28872,-0.8961 z M 288.40211,98.002539 C 277.25129,96.368522 270.36713,93.085999 262.1646,85.491907 250.70201,74.87957 246,64.264687 246,49 c 0,-15.264687 4.70201,-25.87957 16.1646,-36.491907 7.06575,-6.5416331 11.52392,-8.986497 20.05392,-10.9975752 12.25724,-2.8898334 27.03131,-1.22071093 36.9425,4.1736357 7.40889,4.0324237 16.39907,13.6363655 20.38267,21.7741895 11.01818,22.508304 3.01738,50.016714 -18.54369,63.757043 -8.33866,5.314015 -22.51227,8.265079 -32.59789,6.787153 z m 20.79651,-7.06945 C 318.97506,87.639646 328.05282,80.248339 333.6798,71 340.73735,59.400402 340.74053,38.63053 333.6868,27 330.47904,21.711531 323.36267,14.438193 318.15161,11.122418 310.84364,6.4723831 303.22095,4.7080412 292.4703,5.1782378 284.27916,5.5364899 282.38456,6.0000181 275.79014,9.2591551 266.56133,13.82028 259.13194,21.388341 254.70145,30.741473 251.67691,37.126536 251.5,38.135469 251.5,49 c 0,10.852236 0.1794,11.878707 3.18498,18.223329 5.41704,11.435099 14.79695,19.826668 26.80196,23.977905 7.1912,2.486658 19.89919,2.363693 27.71168,-0.268145 z M 288.5,63.040514 c -1.1,-0.457992 -3.35,-2.259016 -5,-4.002276 -2.73876,-2.893561 -3,-3.771947 -3,-10.087234 0,-6.649562 0.14407,-7.061738 3.71718,-10.634855 3.37852,-3.378512 4.30504,-3.754615 10.16934,-4.128026 6.33424,-0.403334 6.52769,-0.340275 10.58503,3.450517 7.28662,6.807924 7.33446,15.869949 0.11938,22.61136 -3.62117,3.383438 -4.53046,3.743804 -9.30221,3.686614 -2.90879,-0.03486 -6.18872,-0.438108 -7.28872,-0.8961 z"
       id="path4107"
       inkscape:connector-curvature="0" />
    <path
       style="fill:#da807e"
       d="m 175.5,345.45946 c -12.05294,-2.251 -21.44761,-5.13487 -66.56846,-20.43442 -22.736605,-7.70951 -41.680619,-13.67596 -42.097806,-13.25877 -0.417187,0.41718 -0.887944,5.47794 -1.046128,11.24612 L 65.5,333.5 H 33 0.5 L 0.24264736,269.23633 -0.01470528,204.97265 32.742647,205.23633 65.5,205.5 l 0.5,7 0.5,7 28,0.61441 c 30.45469,0.66827 36.29818,1.46903 50.39707,6.90614 9.2242,3.55723 23.23309,12.08258 31.17165,18.97005 l 5.56872,4.8314 25.93128,0.339 c 25.32832,0.33112 26.04751,0.39713 30.92983,2.839 6.05652,3.02913 9.50145,7.80753 9.50145,13.17927 0,2.41384 0.532,4.08765 1.40579,4.42295 0.77318,0.2967 15.96068,-4.32399 33.75,-10.26819 L 315.5,250.52638 326,250.51319 c 9.23958,-0.0116 11.16022,0.29836 16,2.58222 6.85065,3.23278 20,13.62993 20,15.81395 0,1.08967 -4.52954,3.87729 -13.75,8.46218 -7.5625,3.76047 -31.525,16.1839 -53.25,27.60763 -49.01755,25.77505 -53.57458,28.05957 -65.81953,32.99645 -19.65352,7.92386 -37.78754,10.452 -53.68047,7.48384 z m 29.99146,-3.97511 c 16.7593,-3.54995 30.88635,-9.93174 84.50854,-38.1761 15.675,-8.25647 36.9375,-19.38561 47.25,-24.73141 10.3125,-5.3458 18.75,-10.12293 18.75,-10.61585 0,-1.20293 -9.40182,-8.15928 -15,-11.09842 C 337.09972,254.81486 335.10066,254.5 326,254.5 h -10.5 l -34,11.39705 c -26.4535,8.86741 -34.7607,12.05805 -37.42727,14.3751 C 237.39686,286.07298 238.11723,286 187.53212,286 147.62304,286 141,285.79432 141,284.55493 c 0,-1.23487 6.7276,-1.48942 46.25,-1.75 44.15384,-0.29111 46.40389,-0.39557 49.64547,-2.30493 4.99115,-2.93989 7.37726,-6.65946 7.37726,-11.5 0,-4.84054 -2.38611,-8.56011 -7.37726,-11.5 -3.12573,-1.84112 -5.51354,-2.02455 -30.05734,-2.30903 l -26.66187,-0.30904 -5.65783,-4.95104 c -13.25844,-11.60216 -27.65918,-19.26946 -44.39795,-23.63854 -7.7449,-2.02154 -60.440932,-3.10121 -62.631463,-1.28324 -1.272756,1.0563 -1.486793,6.91857 -1.473704,40.36333 0.0084,21.52016 0.371651,39.68872 0.807176,40.37458 0.958542,1.50951 78.919321,28.08977 94.886411,32.35096 18.56776,4.95524 31.61263,5.96419 43.78256,3.38637 z M 62,269.60699 c 0,-54.14804 -0.163566,-60.45578 -1.581787,-61 -2.064074,-0.79206 -52.7723516,-0.79206 -54.8364255,0 C 4.1638353,209.15111 4,215.4002 4,268.94032 4,301.78981 4.3,328.96667 4.6666667,329.33333 5.0333333,329.7 18.083333,330 33.666667,330 H 62 Z m 135,-68.29737 c -16.64266,-2.78278 -32.26556,-15.95802 -38.07579,-32.11039 -3.40182,-9.45705 -3.40182,-22.94141 0,-32.39846 8.03613,-22.34036 31.32503,-35.90968 54.68296,-31.86111 C 236.49248,108.90631 254,129.73717 254,153 c 0,29.71044 -27.72127,53.20524 -57,48.30962 z m 24.25209,-6.27067 c 10.8497,-4.1199 21.51903,-14.75402 25.87224,-25.78686 3.25648,-8.25327 3.25648,-24.25091 0,-32.50418 -4.35734,-11.0433 -15.04368,-21.6882 -25.87224,-25.7719 C 191.88861,99.902375 160,121.7806 160,153 c 0,19.79768 13.90751,38.10037 33.02424,43.4609 7.5276,2.11081 20.66747,1.4489 28.22785,-1.42195 z M 199.45042,166.5934 c -4.07402,-1.77453 -8.22358,-6.86731 -9.00969,-11.05766 C 188.87153,147.17121 196.61647,138 205.24938,138 212.19268,138 220,145.93931 220,153 c 0,4.96942 -3.74595,10.6986 -8.49982,12.99991 -4.7717,2.30994 -7.77004,2.45762 -12.04976,0.59349 z M 287,97.309617 c -16.64266,-2.782778 -32.26556,-15.958014 -38.07579,-32.110389 -3.40182,-9.457044 -3.40182,-22.941412 0,-32.398456 C 256.96034,10.460409 280.24924,-3.108906 303.60717,0.93965995 326.49248,4.9063078 344,25.737171 344,49 c 0,29.710435 -27.72127,53.20524 -57,48.309617 z m 24.25209,-6.27067 c 10.8497,-4.119893 21.51903,-14.754013 25.87224,-25.786862 3.25648,-8.253268 3.25648,-24.250902 0,-32.50417 C 332.76699,21.704615 322.08065,11.059714 311.25209,6.9760148 281.88861,-4.0976251 250,17.780595 250,49 c 0,19.797677 13.90751,38.100373 33.02424,43.460897 7.5276,2.110813 20.66747,1.448905 28.22785,-1.42195 z M 289.45042,62.593404 C 285.3764,60.818869 281.22684,55.72609 280.44073,51.535743 278.87153,43.171214 286.61647,34 295.24938,34 302.19268,34 310,41.939308 310,49 c 0,4.969422 -3.74595,10.698602 -8.49982,12.99991 -4.7717,2.309942 -7.77004,2.457621 -12.04976,0.593494 z"
       id="path4105"
       inkscape:connector-curvature="0" />
    <path
       style="fill:#d5706e"
       d="M 181.5,346.35912 C 170.49375,344.61534 148.14617,337.9642 111.13257,325.41619 87.695771,317.47086 67.953159,311.18773 67.260102,311.45368 66.363944,311.79757 66,314.79914 66,321.84617 c 0,7.2636 -0.372974,10.21848 -1.39709,11.06842 -1.010754,0.83885 -10.067075,1.08011 -32.75,0.87245 L 0.5,333.5 0.24264736,269.23633 -0.01470528,204.97265 32.742647,205.23633 65.5,205.5 l 0.300758,6.97235 c 0.173325,4.01811 0.808888,7.29536 1.5,7.73469 C 67.960341,220.62632 80.425,220.986 95,221.00633 c 22.34938,0.0312 27.85891,0.33747 35.17607,1.95559 15.5033,3.42843 31.88823,11.6392 43.82393,21.96093 3.025,2.61595 6.48292,5.27847 7.68426,5.91671 1.48488,0.78888 10.13005,1.16747 27,1.1824 21.98589,0.0195 25.27188,0.23249 28.81574,1.86808 6.67034,3.07857 10.5,8.61335 10.5,15.17506 0,2.36056 0.43217,2.9349 2.20841,2.9349 1.21462,0 16.62712,-4.82106 34.25,-10.71346 31.61948,-10.57232 32.16674,-10.71394 41.54159,-10.75 8.59789,-0.0331 10.11723,0.25767 16,3.0617 6.86932,3.27429 19.87994,13.09721 19.95538,15.06617 0.0245,0.64042 -10.86788,6.76811 -24.20538,13.61709 -13.3375,6.84899 -35.725,18.52987 -49.75,25.95753 -47.2804,25.03975 -59.88754,30.87716 -76.22185,35.29253 -9.04021,2.44368 -23.92661,3.83386 -30.27815,2.82756 z m 36.5,-7.832 c 12.14104,-3.99839 34.46786,-14.97468 91,-44.73737 17.325,-9.12116 34.9875,-18.30391 39.25,-20.40612 4.2625,-2.10221 7.75,-4.36346 7.75,-5.02499 0,-2.05552 -8.19121,-8.45899 -15,-11.72623 -5.76544,-2.76659 -7.46058,-3.11129 -15,-3.05016 -8.10046,0.0657 -10.15609,0.6207 -43.73258,11.80783 -29.294,9.76028 -35.9218,12.31473 -39.32154,15.15514 -2.24892,1.87892 -5.80967,3.87956 -7.91278,4.44587 -5.10006,1.3733 -92.93341,0.9109 -93.28344,-0.49109 -0.16242,-0.65057 15.99867,-1.17471 46.25034,-1.5 46.15831,-0.49633 46.52677,-0.51665 50.14354,-2.76576 9.51975,-5.91994 8.74561,-18.65841 -1.4142,-23.27042 -3.81343,-1.73109 -6.74953,-1.92206 -29.85685,-1.94186 L 181.24499,255 174.3682,249.25 C 160.53843,237.68628 147.54344,230.65347 132.66459,226.68026 125.16555,224.67773 122.13601,224.5 95.5,224.5 h -29 l -0.261107,40.61834 c -0.204055,31.74339 0.01444,40.83633 1,41.61605 1.492113,1.18047 80.666737,28.02288 92.261107,31.27909 14.0941,3.95825 21.38941,4.93295 34.5,4.60939 11.32038,-0.27937 13.58525,-0.66589 24,-4.09575 z M 62.757986,270.11209 c 0.188612,-43.41798 -0.04942,-59.75832 -0.885179,-60.76535 -0.931198,-1.12202 -6.35623,-1.32823 -29.257986,-1.11208 L 4.5,208.5 4.2422481,269.26512 3.9844963,330.03023 33.242248,329.76512 62.5,329.5 Z M 198,200.93374 c -11.3487,-1.69511 -20.48187,-6.46516 -28.22152,-14.73948 -9.00814,-9.63043 -12.97108,-19.90341 -12.92235,-33.49815 0.0973,-27.15376 20.98292,-47.95927 48.14387,-47.95927 21.09181,0 38.9554,12.72934 46.09114,32.84389 2.92854,8.25511 2.92854,22.58343 0,30.83854 C 243.16664,190.7572 220.95209,204.362 198,200.93374 Z m 21.38709,-4.97158 c 12.59732,-3.89092 24.77817,-16.04611 28.88785,-28.82699 C 249.36942,163.73139 250,158.56442 250,153 c 0,-10.68026 -1.95325,-17.30721 -7.49321,-25.42284 -18.39236,-26.94342 -58.60859,-26.07793 -76.15003,1.63882 -8.48687,13.40987 -8.48687,34.15817 0,47.56804 11.22234,17.73211 32.63758,25.47682 53.03033,19.17814 z M 202.5,166.99775 C 195.07101,165.38701 191.00748,160.43768 191.00748,153 c 0,-14.53829 19.01286,-19.69052 26.3435,-7.13874 6.06144,10.37862 -3.26267,23.64905 -14.85098,21.13649 z M 288,96.933737 C 276.6513,95.238627 267.51813,90.468578 259.77848,82.194264 250.86278,72.662658 246.84211,62.345757 246.84211,49 c 0,-21.263484 12.02542,-38.260248 32.65789,-46.158749 8.49425,-3.2517603 22.50575,-3.2517603 31,0 14.95728,5.7259301 25.46669,16.301618 30.6146,30.807655 2.90446,8.184366 2.89351,22.547868 -0.0235,30.770369 C 333.16664,86.757198 310.95209,100.362 288,96.933737 Z m 21.38709,-4.971576 C 321.98441,88.071244 334.16526,75.916051 338.27494,63.135165 339.36942,59.731394 340,54.564421 340,49 340,38.319743 338.04675,31.692791 332.50679,23.577163 314.11443,-3.3662586 273.8982,-2.5007698 256.35676,25.215979 c -8.48687,13.409867 -8.48687,34.158175 0,47.568042 11.22234,17.732109 32.63758,25.476818 53.03033,19.17814 z M 292.5,62.997752 C 285.07101,61.387012 281.00748,56.437679 281.00748,49 c 0,-14.538286 19.01286,-19.690523 26.3435,-7.138742 6.06144,10.378618 -3.26267,23.64905 -14.85098,21.136494 z"
       id="path4103"
       inkscape:connector-curvature="0" />
    <path
       style="fill:#cc504d"
       d="m 181.5,346.05149 c -2.2,-0.45149 -7.825,-1.63091 -12.5,-2.62094 -4.675,-0.99003 -28.3,-8.51687 -52.5,-16.72631 -24.2,-8.20944 -45.287354,-15.15969 -46.860787,-15.44501 -1.822611,-0.33049 -3.177925,-0.018 -3.734687,0.86101 -0.480645,0.75887 -0.880791,5.75505 -0.889213,11.10262 L 65,332.94572 32.872103,333.22286 C 12.116989,333.4019 0.60922676,333.14602 0.36289186,332.5 0.15316899,331.95 0.0982226,303.15 0.24078877,268.5 L 0.5,205.5 h 32 32 L 65,212 c 0.275,3.575 0.864058,7.0625 1.309017,7.75 0.609993,0.94249 6.680884,1.25 24.677641,1.25 13.127742,0 27.370122,0.48701 31.649742,1.08225 19.13763,2.6618 37.4265,11.20834 53.4638,24.98406 l 5.60021,4.81046 26.39979,0.31161 c 25.29041,0.29853 26.58004,0.40787 30.68903,2.60196 5.15563,2.75297 7.98153,7.05804 8.83509,13.45966 0.34834,2.6125 1.08029,4.75 1.62656,4.75 0.54628,0 15.40024,-4.7356 33.0088,-10.52356 17.60857,-5.78796 34.76615,-10.91278 38.12795,-11.3885 12.15717,-1.72031 23.56176,2.07211 34.62212,11.51306 2.83446,2.41945 5.56681,4.399 6.0719,4.399 0.50509,0 0.9117,0.5625 0.90357,1.25 -0.008,0.6875 -8.24955,5.42946 -18.31426,10.5377 -10.06471,5.10823 -31.54556,16.3008 -47.73522,24.87238 -54.58974,28.90243 -64.50398,33.38908 -91.43574,41.37891 -4.49163,1.33254 -18.44698,1.94687 -23,1.0125 z m 30.20546,-5.15745 c 11.81363,-3.07767 26.0853,-9.47638 55.79454,-25.01548 14.85,-7.76713 40.275,-21.00698 56.5,-29.42189 16.225,-8.41491 30.4,-16.00814 31.5,-16.87384 1.95316,-1.53715 1.8946,-1.66856 -2.5,-5.6106 -2.475,-2.22012 -7.41554,-5.4846 -10.97897,-7.2544 -5.92923,-2.9448 -7.28683,-3.21783 -16,-3.21783 -9.50463,0 -9.58164,0.0204 -44.69729,11.80869 -19.34694,6.49477 -35.73607,12.48321 -36.42028,13.30763 -0.68421,0.82442 -3.30489,2.71052 -5.82374,4.19132 L 234.5,285.5 h -45.74838 c -29.83042,0 -45.74933,-0.34795 -45.75113,-1 -0.002,-0.64513 16.42668,-1.17744 46.29387,-1.5 42.437,-0.45832 46.52607,-0.65042 49.04887,-2.30433 6.81974,-4.47093 8.78093,-14.01779 4.03765,-19.65486 -5.28292,-6.2784 -6.2297,-6.46113 -35.56524,-6.86435 l -26.68436,-0.36677 -6.31564,-5.48065 C 161.59748,237.72623 147.09835,230.07785 131.28833,225.89562 124.61248,224.12966 119.57192,223.76749 96,223.36011 c -17.842593,-0.30836 -28.026768,-0.1169 -29,0.54518 -1.281676,0.87192 -1.541212,6.67655 -1.78315,39.88085 -0.155733,21.37323 0.101316,39.89972 0.57122,41.16999 0.69247,1.87193 3.493818,3.23278 14.78315,7.18142 32.25382,11.28133 76.53922,25.84826 84.57133,27.81829 17.81949,4.37059 32.27008,4.66176 46.56291,0.9382 z M 61.75788,330.1708 c 0.992521,-0.63011 1.203478,-13.548 1,-61.23469 L 62.5,208.5 H 33 3.5 l -0.257923,59.88799 c -0.1869189,43.40131 0.053258,60.26294 0.8724447,61.25 0.904543,1.08991 6.6497983,1.35895 28.7579233,1.3467 15.195155,-0.008 28.193601,-0.37467 28.885435,-0.81389 z M 192.10463,199.48009 c -8.33712,-2.33872 -14.4786,-6.17149 -21.43452,-13.37683 C 161.02054,176.10768 157,166.37162 157,153 c 0,-13.43936 4.01495,-23.10189 13.81911,-33.2576 10.68235,-11.06538 22.17336,-15.47835 37.68089,-14.47087 14.25071,0.92584 26.40931,7.51217 35.02442,18.97281 7.08432,9.42421 8.88529,15.25275 8.88529,28.75566 0,9.58398 -0.3757,12.44833 -2.25496,17.19188 -4.79837,12.11186 -16.031,23.32506 -27.91173,27.86345 -7.5324,2.87735 -22.44676,3.58241 -30.13839,1.42476 z m 21.46171,-1.57336 c 9.19386,-1.69395 16.19228,-5.51347 23.5096,-12.83079 7.64103,-7.64103 11.35419,-14.71558 13.11594,-24.98936 1.49761,-8.73338 0.0949,-18.47296 -3.8776,-26.92316 -3.49704,-7.43886 -14.01972,-17.97171 -21.43837,-21.45909 -16.70195,-7.85131 -36.49402,-5.04589 -49.98689,7.08535 -10.39438,9.34545 -15.31948,20.34381 -15.31948,34.21032 0,13.84845 4.92625,24.8659 15.28105,34.17576 10.80849,9.71776 24.14788,13.41508 38.71575,10.73097 z M 199.5,166.04051 c -1.1,-0.45799 -3.35,-2.25901 -5,-4.00227 -2.63829,-2.78741 -3,-3.88306 -3,-9.08724 0,-5.50951 0.25979,-6.17746 3.76667,-9.68433 C 198.78051,139.75282 199.43382,139.5 205,139.5 c 5.53369,0 6.23184,0.26517 9.62093,3.65426 8.92711,8.92711 2.83671,24.00668 -9.60533,23.78235 -1.93358,-0.0349 -4.4156,-0.4381 -5.5156,-0.8961 z M 282.10463,95.480091 C 273.76751,93.141367 267.62603,89.308598 260.67011,82.103261 251.02054,72.107684 247,62.371621 247,49 247,35.768031 251.00334,25.950558 260.38757,16.169385 271.00819,5.0995203 281.47445,0.45358827 295.5,0.58311641 c 7.67644,0.0708932 10.06554,0.53252089 16.2455,3.13900529 13.3022,5.6103864 23.49693,15.6775383 28.39012,28.0348543 3.28523,8.296568 3.29516,26.165678 0.0191,34.434903 -4.79837,12.111864 -16.031,23.325064 -27.91173,27.863455 -7.5324,2.877348 -22.44676,3.582406 -30.13839,1.424757 z m 21.46171,-1.573359 c 9.19386,-1.693954 16.19228,-5.513472 23.5096,-12.830791 7.64103,-7.641031 11.35419,-14.715576 13.11594,-24.989358 1.49761,-8.73338 0.0949,-18.472959 -3.8776,-26.923166 C 332.81724,21.724559 322.29456,11.191711 314.87591,7.7043262 298.17396,-0.14697517 278.38189,2.6584391 264.88902,14.789685 254.49464,24.135132 249.56954,35.133485 249.56954,49 c 0,13.848454 4.92625,24.865901 15.28105,34.175762 10.80849,9.717755 24.14788,13.415078 38.71575,10.73097 z M 289.5,62.040514 c -1.1,-0.457992 -3.35,-2.259016 -5,-4.002276 -2.63829,-2.787408 -3,-3.883058 -3,-9.087234 0,-5.509519 0.25979,-6.177464 3.76667,-9.684337 C 288.78051,35.752824 289.43382,35.5 295,35.5 c 5.53369,0 6.23184,0.265174 9.62093,3.65426 8.92711,8.927114 2.83671,24.006684 -9.60533,23.782354 -1.93358,-0.03486 -4.4156,-0.438108 -5.5156,-0.8961 z"
       id="path4101"
       inkscape:connector-curvature="0" />
    <path
       style="fill:#c8403d"
       d="m 179,345.22544 c 0,-0.42601 -3.4875,-1.32849 -7.75,-2.00552 -4.60561,-0.73153 -27.14988,-7.75363 -55.56508,-17.30745 -26.298296,-8.84208 -48.445368,-15.83464 -49.215718,-15.53903 -1.055385,0.40499 -1.470709,3.19828 -1.684918,11.33202 L 64.5,332.5 32.76024,333 C 6.9013064,333.40736 0.92594145,333.25324 0.51024003,332.16821 -0.09537462,330.58749 -0.18872013,206.5227 0.41524922,205.91667 0.6436363,205.6875 15.156136,205.725 32.665249,206 L 64.5,206.5 64.785451,213 c 0.203358,4.63067 0.761605,6.85949 1.941129,7.75 1.230146,0.92873 8.641504,1.25 28.836325,1.25 25.689325,0 27.722635,0.13713 37.058875,2.49937 12.97681,3.28336 27.69745,10.67634 38.26944,19.21963 4.61518,3.72955 9.34018,7.33687 10.5,8.01626 1.51963,0.89015 9.10391,1.23937 27.14689,1.25 23.97888,0.0141 25.22439,0.10993 29.44146,2.26474 5.74272,2.93439 8.18896,6.44855 8.78149,12.61512 0.26499,2.75775 1.04506,5.23024 1.73349,5.49442 0.68844,0.26417 16.2713,-4.53753 34.62858,-10.67045 33.10189,-11.05891 33.45531,-11.15094 42.8979,-11.16993 8.74167,-0.0176 10.05137,0.24492 16,3.20701 8.53955,4.25222 23.88579,16.28676 19.22897,15.07938 -1.03949,-0.26951 -23.36708,11.08711 -65.5594,33.34589 -55.79993,29.43754 -68.47979,35.40704 -83.44586,39.28514 -9.96362,2.58183 -9.43715,1.64452 0.75526,-1.34463 15.78056,-4.628 26.20104,-9.54113 76.44195,-36.04144 14.33193,-7.55959 35.39555,-18.57415 46.80805,-24.4768 15.88585,-8.21632 20.75,-11.17478 20.75,-12.62051 0,-2.39449 -8.61501,-8.96684 -16.53189,-12.61211 -5.07127,-2.33502 -7.24542,-2.74029 -14.46811,-2.69689 -8.11642,0.0488 -10.08693,0.57882 -43.6657,11.74571 -27.08359,9.00688 -36.04693,12.40379 -39,14.78019 -7.4248,5.9749 -6.18626,5.84985 -55.55218,5.60868 L 142.5,284.55756 l 46,-0.52878 c 41.14449,-0.47296 46.33473,-0.71191 49.17116,-2.26369 4.93791,-2.70148 7.82884,-7.48044 7.82884,-12.94176 0,-5.81128 -2.49646,-9.49523 -8.52043,-12.57333 -4.22906,-2.16094 -5.42175,-2.25 -30.13327,-2.25 h -25.72992 l -5.80819,-5.08635 C 162.76684,237.93092 147.60345,229.6695 132.66459,225.68026 125.15046,223.6737 122.14979,223.5 95,223.5 H 65.5 l -0.241004,41 c -0.132552,22.55 0.137473,41.59238 0.600057,42.3164 1.091397,1.70823 93.166307,32.57367 103.640947,34.74262 4.4,0.9111 13.29942,1.8953 19.77649,2.18712 6.47708,0.29182 12.01613,0.91832 12.30902,1.39222 C 201.8784,345.61226 196.91648,346 190.55902,346 184.20156,346 179,345.65145 179,345.22544 Z M 63.393011,329.41821 C 63.726855,328.54823 64,301.40924 64,269.10934 64,223.70503 63.716426,209.99489 62.75,208.67471 61.613088,207.12165 58.876362,206.99127 32.5,207.23358 L 3.5,207.5 3.2406282,268 c -0.1426545,33.275 -0.044278,61.0625 0.2186152,61.75 0.3674187,0.96085 7.2844596,1.25 29.9023826,1.25 25.90871,0 29.496921,-0.189 30.031385,-1.58179 z M 197.5,200.00323 c -13.89983,-2.26511 -25.41187,-10.00416 -33.21079,-22.32621 -8.6764,-13.70846 -8.6764,-35.64558 0,-49.35404 9.32034,-14.72584 23.02303,-22.42175 40.21079,-22.58376 19.27797,-0.18171 35.26457,9.67428 43.50909,26.82404 7.77632,16.17585 5.24018,37.13154 -6.15145,50.8283 -10.29468,12.37784 -28.50036,19.19576 -44.35764,16.61167 z m 21.40904,-2.89779 c 24.12724,-7.50924 37.76225,-33.70536 30.1964,-58.01448 -9.2738,-29.79677 -46.00071,-41.993092 -71.01114,-23.58147 -25.401,18.69916 -25.6606,55.65302 -0.52428,74.63113 11.21077,8.46421 27.63212,11.23089 41.33902,6.96482 z m -19.59272,-32.04882 c -10.65006,-4.83528 -10.08355,-19.89219 0.92001,-24.4525 4.46155,-1.84904 4.81511,-1.85619 9.18924,-0.1857 11.90618,4.54702 12.2637,20.28779 0.56709,24.96784 -5.03545,2.01479 -5.54739,1.99898 -10.67634,-0.32964 z M 287.5,96.003229 c -13.89983,-2.265106 -25.41187,-10.004163 -33.21079,-22.326208 -8.6764,-13.708457 -8.6764,-35.645585 0,-49.354042 5.99903,-9.478282 15.01945,-16.8656407 24.48321,-20.050772 2.60017,-0.8751135 5.02146,-2.0378394 5.38065,-2.5838352 0.86049,-1.30802414 20.84303,-1.2969725 21.69386,0.011998 0.35919,0.5525948 3.01488,1.7820097 5.90154,2.7320332 6.11846,2.0136357 15.48593,8.617267 20.10917,14.176032 4.84313,5.823156 8.92952,15.136665 10.18134,23.204821 4.25234,27.407036 -15.63431,52.313191 -43.53898,54.528449 -3.3,0.261976 -8.25,0.109661 -11,-0.338476 z m 21.40904,-2.897789 c 24.12724,-7.509239 37.76225,-33.705357 30.1964,-58.014484 -9.2738,-29.7967704 -46.00071,-41.9930877 -71.01114,-23.581462 -25.401,18.699151 -25.6606,55.653018 -0.52428,74.631121 11.21077,8.464212 27.63212,11.230893 41.33902,6.964825 z M 289.31632,61.056621 c -10.65006,-4.835285 -10.08355,-19.89219 0.92001,-24.452501 4.46155,-1.849045 4.81511,-1.85619 9.18924,-0.185696 11.90618,4.547011 12.2637,20.287783 0.56709,24.967837 -5.03545,2.014788 -5.54739,1.998982 -10.67634,-0.32964 z"
       id="path4099"
       inkscape:connector-curvature="0" />
    <path
       style="fill:#c3302c"
       d="m 184.78919,345.25859 c 3.45905,-0.19583 8.85905,-0.19422 12,0.004 3.14094,0.19781 0.31081,0.35803 -6.28919,0.35606 -6.6,-0.002 -9.16987,-0.16382 -5.71081,-0.35965 z M 0.59776566,332.26443 C -0.47806869,331.1886 -0.08136872,206.16832 1,205.5 c 0.55,-0.33992 1.0100168,-0.029 1.0222596,0.69098 0.012243,0.71996 0.00235,28.701 -0.021973,62.18008 -0.029803,41.01411 0.2974746,61.28279 1.0032638,62.13322 0.752899,0.90719 0.6459544,1.41624 -0.3802611,1.81004 -0.7852668,0.30133 -1.69675232,0.27888 -2.02552344,-0.0499 z M 62.5,331 c 0.339919,-0.55 0.816476,-1 1.059017,-1 C 63.801558,330 64,330.45 64,331 c 0,0.55 -0.476558,1 -1.059017,1 -0.582459,0 -0.780902,-0.45 -0.440983,-1 z M 64,308.45578 c 0,-1.53401 0.3375,-2.38185 0.75,-1.88408 0.4125,0.49777 1.1088,1.17499 1.547334,1.50494 0.438534,0.32995 0.101034,1.17778 -0.75,1.88408 C 64.213791,311.06746 64,310.85953 64,308.45578 Z M 245.22711,274.4009 c 0.61588,-1.35171 1.37923,-2.06236 1.69633,-1.57922 0.31711,0.48314 1.23948,1.09188 2.04971,1.35276 0.93678,0.30162 0.31914,0.87662 -1.69633,1.57922 -3.12875,1.09068 -3.1551,1.07329 -2.04971,-1.35276 z M 358,268.44098 c 0,-0.85746 0.45,-1.2809 1,-0.94098 0.55,0.33992 1,1.04148 1,1.55902 0,0.51754 -0.45,0.94098 -1,0.94098 -0.55,0 -1,-0.70156 -1,-1.55902 z M 64,221.84617 c 0,-1.74534 0.248,-1.88524 1.5,-0.84617 0.825,0.68469 1.5,1.36664 1.5,1.51546 0,0.14881 -0.675,0.52958 -1.5,0.84617 -1.03862,0.39855 -1.5,-0.0676 -1.5,-1.51546 z m 134.29855,-57.80569 c -8.47987,-5.17047 -8.13408,-17.97145 0.60757,-22.49193 6.13179,-3.17087 13.56039,-1.11151 17.13436,4.75 6.97143,11.43353 -6.3084,24.71336 -17.74193,17.74193 z m 90,-103.999996 c -6.11697,-3.729734 -8.05384,-11.649445 -4.33903,-17.741935 5.05673,-8.293324 17.02423,-8.293324 22.08096,0 6.97143,11.433527 -6.3084,24.713366 -17.74193,17.741935 z M 289.25,0.91402021 c 3.1625,-0.46315263 8.3375,-0.46315263 11.5,0 5.05727,0.74064379 4.36453,0.84209569 -5.75,0.84209569 -10.11453,0 -10.80727,-0.1014519 -5.75,-0.84209569 z"
       id="path4097"
       inkscape:connector-curvature="0" />
  </g>
</svg>
